<svg xmlns="http://www.w3.org/2000/svg" width="25" height="20" viewBox="0 0 25 20">
    <g fill="#00D4D0" fill-rule="evenodd">
        <path d="M12.5 20a.5.5 0 0 1-.5-.5v-9c0-1.654-1.346-3-3-3s-3 1.346-3 3v9a.5.5 0 0 1-1 0v-9c0-2.206 1.794-4 4-4s4 1.794 4 4v9a.5.5 0 0 1-.5.5"/>
        <path d="M8 11.5h2v-1a1 1 0 0 0-2 0v1zm2.5 1h-3A.5.5 0 0 1 7 12v-1.5c0-1.102.898-2 2-2 1.102 0 2 .898 2 2V12a.5.5 0 0 1-.5.5zM19.5 20a.5.5 0 0 1-.5-.5v-10c0-1.654-1.346-3-3-3s-3 1.346-3 3v10a.5.5 0 0 1-1 0v-10c0-2.206 1.794-4 4-4s4 1.794 4 4v10a.5.5 0 0 1-.5.5"/>
        <path d="M15 10.5h2v-1a1 1 0 0 0-2 0v1zm2.5 1h-3a.5.5 0 0 1-.5-.5V9.5c0-1.102.898-2 2-2 1.102 0 2 .898 2 2V11a.5.5 0 0 1-.5.5zM3.501 9.521a.5.5 0 0 1-.496-.568C3.397 6.13 5.845 4.002 8.7 4.002c.862 0 1.69.184 2.462.55a.5.5 0 1 1-.428.905A4.7 4.7 0 0 0 8.7 5C6.342 5 4.318 6.758 3.995 9.09a.5.5 0 0 1-.494.431M21.45 9.5a.5.5 0 0 1-.5-.5c0-2.757-2.243-5-5-5-.968 0-1.907.277-2.717.802a.501.501 0 0 1-.543-.84A5.984 5.984 0 0 1 15.95 3c3.31 0 6 2.691 6 6a.5.5 0 0 1-.5.5"/>
        <path d="M23.86 11.009a.5.5 0 0 1-.492-.593c.087-.465.132-.941.132-1.416 0-4.135-3.365-7.5-7.5-7.5-.975 0-1.92.184-2.812.545a.5.5 0 1 1-.377-.926 8.43 8.43 0 0 1 3.19-.62c4.685 0 8.5 3.815 8.5 8.5 0 .538-.052 1.077-.152 1.603a.5.5 0 0 1-.49.407M1.062 11.5a.5.5 0 0 1-.495-.437A8.486 8.486 0 0 1 .5 10C.5 5.313 4.314 1.5 9 1.5c.72 0 1.438.091 2.13.269a.5.5 0 1 1-.25.968A7.55 7.55 0 0 0 9 2.5c-4.136 0-7.5 3.364-7.5 7.5 0 .317.02.63.058.938a.5.5 0 0 1-.496.562"/>
    </g>
</svg>
