<svg xmlns="http://www.w3.org/2000/svg" width="30" height="30" viewBox="0 0 30 30">
    <g fill="none" fill-rule="evenodd">
        <path d="M0 0h30v30H0z"/>
        <g fill="#00D4D0">
            <path d="M20.678 8.882l-5.011-4.224-4.838 4.219-.657-.754 5.16-4.5a.5.5 0 0 1 .652-.005l5.339 4.5-.645.764z"/>
            <path d="M4 26h22V9H4v17zm23 1H3V8h24v19z"/>
            <path d="M6 24h18V11H6v13zm19 1H5V10h20v15z"/>
            <path d="M16.46 24.821c-.162-.193-3.233-3.905-4.46-8.255-1.227 4.35-4.299 8.062-4.46 8.255l-.768-.643c.047-.055 4.728-5.714 4.728-10.965a.499.499 0 1 1 1 0c0 5.251 4.68 10.91 4.727 10.965l-.767.643z"/>
            <path d="M14.5 21.5h-5v-1h5zM22 24.5h-1v-3h-1v3h-1V21a.5.5 0 0 1 .5-.5h2a.5.5 0 0 1 .5.5v3.5z"/>
            <path d="M22 21h-1v-3a.5.5 0 0 1 .5-.5h3v1H22V21z"/>
        </g>
    </g>
</svg>
