<svg xmlns="http://www.w3.org/2000/svg" width="30" height="30" viewBox="0 0 30 30">
    <g fill="none" fill-rule="evenodd">
        <path d="M0 0h30v30H0z"/>
        <path fill="#00D4D0" stroke="#00D4D0" stroke-width=".5" d="M9.37 15.63h-.581c-.873 0-1.574.655-1.574 1.454v6.78c0 .8.701 1.454 1.574 1.454h.58c.873 0 1.575-.654 1.575-1.453v-6.781c0-.8-.703-1.453-1.574-1.453zm1.041 8.235c0 .532-.46.968-1.041.968h-.581c-.581 0-1.042-.436-1.042-.968v-6.781c0-.533.46-.969 1.042-.969h.58c.581 0 1.042.436 1.042.969v6.78zm10.777-8.234h-.581c-.872 0-1.574.654-1.574 1.453v6.78c0 .8.702 1.454 1.574 1.454h.58c.873 0 1.575-.654 1.575-1.453v-6.781c-.025-.8-.727-1.453-1.574-1.453zm1.04 8.234c0 .532-.46.968-1.041.968h-.581c-.58 0-1.042-.436-1.042-.968v-6.781c0-.533.46-.969 1.042-.969h.58c.582 0 1.042.436 1.042.969v6.78zm2.52-9.93C24.747 9.02 20.363 5 14.987 5c-5.376 0-9.76 4.02-9.76 8.936v3.052C3.92 17.424 3 18.562 3 19.918v1.115c0 1.72 1.526 3.123 3.415 3.123.146 0 .267-.096.267-.242l-.001-6.878c0-.146-.121-.242-.267-.242-.217 0-.436.024-.63.048l.001-2.906c-.025-4.65 4.117-8.451 9.203-8.451 5.085 0 9.227 3.801 9.227 8.45v2.907c-.218-.025-.412-.048-.63-.048-.146 0-.267.096-.267.242v6.877c0 .146.121.242.267.242 1.864 0 3.415-1.405 3.415-3.123v-1.115c-.025-1.355-.969-2.494-2.252-2.93v-3.051zm-18.6 9.712c-1.477-.12-2.615-1.235-2.615-2.615v-1.115c0-1.38 1.138-2.494 2.615-2.615v6.345zm20.295-2.615c0 1.38-1.138 2.494-2.616 2.615v-6.37c1.453.122 2.616 1.26 2.616 2.617v1.138z"/>
    </g>
</svg>
