<svg xmlns="http://www.w3.org/2000/svg" width="20" height="24" viewBox="0 0 20 24">
    <g fill="#00D4D0" fill-rule="evenodd">
        <path d="M10 22c.752 0 1.055.217 1.372.499.263.235.562.501 2.128.501 2.603 0 5.5-5.662 5.5-9.5C19 9.855 16.804 7 14 7c-1.768 0-2.372.349-2.857.629C10.826 7.812 10.5 8 10 8s-.826-.188-1.143-.371C8.372 7.349 7.768 7 6 7c-2.804 0-5 2.855-5 6.5C1 17.338 3.897 23 6.5 23c1.566 0 1.865-.266 2.128-.501.317-.282.62-.499 1.372-.499m3.5 2c-1.802 0-2.331-.342-2.794-.754-.188-.169-.275-.246-.706-.246-.431 0-.518.077-.706.246-.463.412-.992.754-2.794.754C3.038 24 0 17.456 0 13.5 0 9.294 2.636 6 6 6c2.036 0 2.8.441 3.357.763.571.33.715.33 1.286 0C11.2 6.441 11.964 6 14 6c3.364 0 6 3.294 6 7.5 0 3.956-3.038 10.5-6.5 10.5"/>
        <path d="M10 8a.5.5 0 0 1-.5-.5v-2C9.5 4.673 8.827 4 8 4H6a.5.5 0 0 1 0-1h2c1.379 0 2.5 1.121 2.5 2.5v2a.5.5 0 0 1-.5.5M15.964 1.036a4.008 4.008 0 0 0-3.428 3.428 4.008 4.008 0 0 0 3.428-3.428M12 5.5a.5.5 0 0 1-.5-.5c0-2.757 2.243-5 5-5a.5.5 0 0 1 .5.5c0 2.757-2.243 5-5 5"/>
    </g>
</svg>
