<svg xmlns="http://www.w3.org/2000/svg" width="19" height="23" viewBox="0 0 19 23">
    <g fill="none" fill-rule="evenodd">
        <path fill="#00D4D0" d="M1.88 5c1.171 3.018 4.025 6 7.422 6 3.397 0 6.252-2.982 7.422-6H1.88zm7.422 7C5.183 12 1.795 8.212.699 4.646L.5 4h17.604l-.2.646C16.81 8.212 13.423 12 9.302 12z"/>
        <path fill="#00D4D0" d="M10 23a.5.5 0 0 1-.5-.5v-11a.5.5 0 0 1 1 0v11a.5.5 0 0 1-.5.5"/>
        <path fill="#00D4D0" d="M14 23H6a.5.5 0 0 1 0-1h8a.5.5 0 0 1 0 1M12.515 4.621l-.526-2.106A1.997 1.997 0 0 0 10.048 1H6.5V0h3.548c1.379 0 2.576.934 2.911 2.272l.527 2.107-.971.242z"/>
        <path fill="#00D4D0" d="M10 7c-.267 0-.534-.03-.795-.091l.227-.974A2.502 2.502 0 0 0 12.5 3.5C12.5 2.121 11.379 1 10 1a2.502 2.502 0 0 0-2.354 3.344l-.941.34A3.504 3.504 0 0 1 10 0c1.93 0 3.5 1.57 3.5 3.5S11.93 7 10 7"/>
    </g>
</svg>
