<svg xmlns="http://www.w3.org/2000/svg" width="24" height="19" viewBox="0 0 24 19">
    <g fill="#00D4D0" fill-rule="nonzero">
        <path d="M23.075 13.005L23.063 13c-1.11-.417-4.69-3.513-4.727-3.544l-.017-.016-.02-.011c-.903-.525-1.943-.7-3.007-.508a4.805 4.805 0 0 0-1.297.427h-1.631V4.112h1.443l-1.693-2.81-1.573 2.81h1.338v5.236h-1.647a4.52 4.52 0 0 0-2.458-.393 4.54 4.54 0 0 0-2.33 1.014c-.218.18-.433.36-.64.536-1.118.938-2.173 1.825-3.532 2.479a3.827 3.827 0 0 1-.829.297l-.19.042-.028 1.656.342-.118a9.13 9.13 0 0 0 1.302-.571l10.105 4.327.094.04 10.364-4.388c.121.067.243.134.367.198.3.157.594.29.873.394l.326.122v-1.575l-.923-.403zM12.129 2.267l.82 1.36h-1.581l.761-1.36zm1.992 7.566l.056-.032c.02-.01 1.925-1.074 3.86.036.274.237 2.984 2.57 4.397 3.388l-.13.414a17.237 17.237 0 0 1-2.53-1.778c-.157-.134-.316-.278-.472-.416-.701-.63-1.427-1.282-2.4-1.508-.76-.177-1.76-.071-2.682.284h-1.856v-.388h1.757zm-9.006 1.043c.207-.174.421-.354.638-.533a4.01 4.01 0 0 1 4.321-.533l.05.023h1.755v.389h-1.85c-.92-.355-1.92-.462-2.682-.284-1.036.241-1.832.964-2.6 1.664-.25.227-.485.442-.727.638-.73.593-1.404 1.069-2.051 1.44l-.121-.444c1.238-.655 2.226-1.486 3.267-2.36zM.74 13.838l-.001-.131c.216-.061.435-.143.667-.25l.126.462a8.78 8.78 0 0 1-.79.36l-.002-.44zm3.587-1.222c.252-.205.503-.434.746-.656.724-.658 1.47-1.339 2.384-1.55.802-.187 1.785.02 2.438.28l.043.016h1.941v4.22l-1.167 1.248v1.375L2.399 13.99a16.655 16.655 0 0 0 1.928-1.375zm7.552 3.753l-.683.685v-.688l.683-.73v.733zm-.683 1.37l.683-.684v.994l-.683-.292v-.017zm1.168-.729l.698.7-.698.296v-.996zm.727.043l-.727-.73v-.736l.727.778v.688zm.485.44v-1.319l-1.212-1.296v-4.172h1.949l.042-.017c.653-.257 1.637-.467 2.439-.28.851.198 1.53.808 2.185 1.398.157.14.319.287.48.425.742.63 1.56 1.212 2.443 1.735l-8.326 3.525zm9.937-3.22a8.153 8.153 0 0 1-.49-.235 27.762 27.762 0 0 1-.287-.154l.137-.437.014.006.627.273v.548z"/>
        <path d="M18.703.706a3.859 3.859 0 0 0-3.855 3.855 3.859 3.859 0 0 0 3.855 3.854 3.859 3.859 0 0 0 3.854-3.854A3.857 3.857 0 0 0 18.703.706zm0 7.224a3.373 3.373 0 0 1-3.37-3.37 3.373 3.373 0 0 1 3.37-3.368 3.373 3.373 0 0 1 3.369 3.369c0 1.858-1.51 3.369-3.37 3.369z"/>
        <path d="M18.703 2.018a2.545 2.545 0 0 0-2.543 2.543 2.545 2.545 0 0 0 2.543 2.542 2.546 2.546 0 0 0 2.543-2.542 2.546 2.546 0 0 0-2.543-2.543zm0 4.6a2.06 2.06 0 0 1-2.058-2.057 2.06 2.06 0 0 1 2.058-2.058 2.06 2.06 0 0 1 2.057 2.058 2.06 2.06 0 0 1-2.057 2.058z"/>
        <path d="M18.703 3.476a1.085 1.085 0 0 0 0 2.169 1.085 1.085 0 0 0 0-2.169zm0 1.684a.6.6 0 1 1 .001-1.2.6.6 0 0 1-.001 1.2z"/>
    </g>
</svg>
