<svg xmlns="http://www.w3.org/2000/svg" width="25" height="24" viewBox="0 0 25 24">
    <g fill="#00D4D0" fill-rule="evenodd">
        <path d="M1.5 23h22V2a1 1 0 0 0-1-1h-18v9H11a.5.5 0 0 1 .5.5v10a.5.5 0 0 1-.5.5H1.5v2zM24 24H1a.5.5 0 0 1-.5-.5v-3A.5.5 0 0 1 1 20h9.5v-9H4a.5.5 0 0 1-.5-.5V.5A.5.5 0 0 1 4 0h18.5c1.102 0 2 .897 2 2v21.5a.5.5 0 0 1-.5.5z"/>
        <path d="M19.5 23.5h-1v-11a.5.5 0 0 1 .5-.5h5v1h-4.5v10.5zM24 6h-6a.5.5 0 0 1 0-1h6a.5.5 0 0 1 0 1M24 8h-6a.5.5 0 0 1 0-1h6a.5.5 0 0 1 0 1M24 10h-6a.5.5 0 0 1 0-1h6a.5.5 0 0 1 0 1M5.5 16h3v-1.5h-3V16zM9 17H5a.5.5 0 0 1-.5-.5V14a.5.5 0 0 1 .5-.5h4a.5.5 0 0 1 .5.5v2.5a.5.5 0 0 1-.5.5z"/>
        <path d="M5 16H1a.5.5 0 0 1 0-1h4a.5.5 0 0 1 0 1M8.5 14h-1v-3.5h1zM6.5 14h-1v-3.5h1zM7.5 3a1 1 0 1 0 0 2 1 1 0 0 0 0-2m0 3c-1.102 0-2-.897-2-2s.898-2 2-2c1.102 0 2 .897 2 2s-.898 2-2 2M7 18a.5.5 0 0 1-.5-.5v-1a.5.5 0 0 1 1 0v1a.5.5 0 0 1-.5.5"/>
    </g>
</svg>
