<svg xmlns="http://www.w3.org/2000/svg" width="24" height="24" viewBox="0 0 24 24">
    <g fill="none" fill-rule="evenodd">
        <g fill="#00D4D0">
            <path d="M3.048 5.16h8.16V4.2h-8.16zM3.048 7.176h8.16v-.96h-8.16zM3.048 9.168h8.16v-.96h-8.16zM7.272 22.44h.96v-7.992h-.96zM11.448 23.88h.96v-7.992h-.96zM24 16.776l-.48-.816-3.6 2.16v-4.08h-.888v4.08l-3.6-2.16-.48.816 3.6 2.232-3.6 2.16.48.792 3.6-2.16v4.08h.888V19.8l3.6 2.16.48-.792-3.6-2.16zM16.968 4.296c-.648 0-1.272.24-1.68.72-.96.96-.96 2.472 0 3.36.48.48 1.128.72 1.68.72.648 0 1.272-.24 1.68-.72.96-.96.96-2.473 0-3.36-.408-.48-1.056-.72-1.68-.72zM18 7.728c-.312.24-.648.408-1.032.408-.408 0-.792-.168-1.032-.408-.24-.24-.408-.648-.408-1.032 0-.385.168-.72.408-1.033.312-.24.647-.407 1.032-.407.408 0 .792.167 1.032.407.24.24.408.648.408 1.033.072.384-.096.72-.408 1.032z"/>
            <path d="M23.52 13.248c.24 0 .48-.24.48-.48v-9.84C24 1.416 22.728.12 21.192.12H2.784C1.272.216 0 1.416 0 2.928v9.84c0 .24.24.48.48.48h2.64v7.92h.888v-7.92H23.52zM.96 2.928c0-1.032.792-1.848 1.848-1.848h18.408c1.032 0 1.847.792 1.847 1.848v9.36H.983L.96 2.928z"/>
        </g>
        <path d="M-3-3h30v30H-3z"/>
    </g>
</svg>
