<svg xmlns="http://www.w3.org/2000/svg" width="22" height="20" viewBox="0 0 22 20">
    <g fill="none" fill-rule="evenodd">
        <g fill="#00D4D0">
            <path d="M17.894 8.783A9.438 9.438 0 0 0 11.177 6h-.003A9.436 9.436 0 0 0 4.46 8.783l-.707-.707A10.433 10.433 0 0 1 11.174 5h.003c2.804 0 5.441 1.092 7.424 3.076l-.707.707zM1.63 4.955l-.707-.707c5.655-5.653 14.853-5.652 20.507 0l-.707.707C15.46-.308 6.895-.307 1.63 4.955M7.287 12.61l-.707-.706c2.534-2.533 6.66-2.535 9.193 0l-.707.707a5.509 5.509 0 0 0-7.779 0"/>
            <path d="M17.894 8.783A9.436 9.436 0 0 0 11.18 6h-.003A9.436 9.436 0 0 0 4.46 8.783l-.707-.707A10.43 10.43 0 0 1 11.176 5h.003a10.43 10.43 0 0 1 7.422 3.076l-.707.707zM15.066 12.61a5.51 5.51 0 0 0-7.779 0l-.707-.706a6.51 6.51 0 0 1 9.193 0l-.707.707zM11.177 16c-.827 0-1.5.673-1.5 1.5s.673 1.5 1.5 1.5 1.5-.673 1.5-1.5-.673-1.5-1.5-1.5m0 4a2.503 2.503 0 0 1-2.5-2.5c0-1.378 1.12-2.5 2.5-2.5 1.379 0 2.5 1.122 2.5 2.5s-1.121 2.5-2.5 2.5"/>
        </g>
        <path d="M-4-5h30v30H-4z"/>
    </g>
</svg>
