<svg xmlns="http://www.w3.org/2000/svg" width="24" height="15" viewBox="0 0 24 15">
    <g fill="none" fill-rule="evenodd">
        <g fill="#00D4D0">
            <path d="M14.5 8.75h-5a.5.5 0 0 1 0-1h5a.5.5 0 0 1 0 1"/>
            <path d="M5.5 1.75a.5.5 0 0 0-.5.5v11a.5.5 0 0 0 .5.5h3a.5.5 0 0 0 .5-.5v-11a.5.5 0 0 0-.5-.5h-3zm3 13h-3c-.827 0-1.5-.673-1.5-1.5v-11c0-.827.673-1.5 1.5-1.5h3c.827 0 1.5.673 1.5 1.5v11c0 .827-.673 1.5-1.5 1.5z"/>
            <path d="M2.5 4.75a.5.5 0 0 0-.5.5v5a.5.5 0 0 0 .5.5H4v-6H2.5zm2 7h-2c-.827 0-1.5-.673-1.5-1.5v-5c0-.827.673-1.5 1.5-1.5h2a.5.5 0 0 1 .5.5v7a.5.5 0 0 1-.5.5z"/>
            <path d="M1.5 8.25h-1a.5.5 0 0 1 0-1h1a.5.5 0 0 1 0 1M15.5 1.75a.5.5 0 0 0-.5.5v11a.5.5 0 0 0 .5.5h3a.5.5 0 0 0 .5-.5v-11a.5.5 0 0 0-.5-.5h-3zm3 13h-3c-.827 0-1.5-.673-1.5-1.5v-11c0-.827.673-1.5 1.5-1.5h3c.827 0 1.5.673 1.5 1.5v11c0 .827-.673 1.5-1.5 1.5z"/>
            <path d="M20 10.75h1.5a.5.5 0 0 0 .5-.5v-5a.5.5 0 0 0-.5-.5H20v6zm1.5 1h-2a.5.5 0 0 1-.5-.5v-7a.5.5 0 0 1 .5-.5h2c.827 0 1.5.673 1.5 1.5v5c0 .827-.673 1.5-1.5 1.5z"/>
            <path d="M23.5 8.25h-1a.5.5 0 0 1 0-1h1a.5.5 0 0 1 0 1"/>
        </g>
        <path d="M-3-7.25h30v30H-3z"/>
    </g>
</svg>
