<svg xmlns="http://www.w3.org/2000/svg" width="25" height="25" viewBox="0 0 25 25">
    <g fill="#00D4D0" fill-rule="evenodd">
        <path d="M8.306 6.276c-.303 0-.61.133-.84.364l-.946.945c-.649.65-.807 1.62-.375 2.305a30.102 30.102 0 0 0 9.34 9.34c.668.421 1.673.256 2.305-.375l.944-.945c.22-.219.348-.498.364-.787a.889.889 0 0 0-.249-.686l-1.549-1.55c-.36-.359-1.054-.305-1.474.115l-.575.574a.5.5 0 0 1-.665.036 31.602 31.602 0 0 1-4.823-4.823.498.498 0 0 1 .037-.666l.573-.574c.22-.219.348-.498.363-.787a.892.892 0 0 0-.248-.687l-1.55-1.549a.883.883 0 0 0-.632-.25m8.047 14.197c-.505 0-.989-.137-1.402-.398a31.097 31.097 0 0 1-9.65-9.652c-.68-1.077-.465-2.568.512-3.545l.945-.945c.798-.796 2.152-.849 2.887-.114l1.55 1.55c.764.764.713 2.06-.115 2.887l-.254.254a30.637 30.637 0 0 0 4.038 4.04l.255-.255c.796-.796 2.15-.852 2.888-.115l1.55 1.55c.376.377.568.89.54 1.446a2.204 2.204 0 0 1-.656 1.441l-.944.945a3.065 3.065 0 0 1-2.144.911"/>
        <path d="M12.5 24.875c-6.617 0-12-5.383-12-12s5.383-12 12-12 12 5.383 12 12c0 2.436-.726 4.782-2.1 6.783a.5.5 0 1 1-.824-.566 10.937 10.937 0 0 0 1.924-6.217c0-6.065-4.935-11-11-11s-11 4.935-11 11 4.935 11 11 11c2.898 0 4.813-.764 5.539-2.21.571-1.139.214-2.29.095-2.451a.49.49 0 0 1 .006-.699.506.506 0 0 1 .714.006c.389.39.799 1.879.195 3.338-.57 1.376-2.169 3.016-6.549 3.016"/>
    </g>
</svg>
