<svg xmlns="http://www.w3.org/2000/svg" width="24" height="24" viewBox="0 0 24 24">
    <g fill="#00D4D0" fill-rule="evenodd">
        <path d="M4 15.049c-1.26 0-2.707-.601-3.46-2.36a.502.502 0 0 1 .46-.696c1.35 0 1.857-2.194 2.396-4.518C4.002 4.854 4.689 1.883 6.862.86c1.336-.628 3.02-.44 5.137.577C14.12.419 15.8.23 17.14.86c2.172 1.023 2.858 3.994 3.466 6.615.537 2.324 1.044 4.518 2.395 4.518a.503.503 0 0 1 .46.697c-.916 2.138-2.854 2.567-4.236 2.28-1.637-.335-2.825-1.588-2.825-2.977a.5.5 0 1 1 1 0c0 1.039 1.02 1.792 2.026 1.998.46.094 1.9.257 2.81-1.124-1.537-.547-2.058-2.8-2.604-5.167-.555-2.4-1.186-5.12-2.92-5.935-1.087-.512-2.555-.29-4.487.676a.502.502 0 0 1-.447 0c-1.934-.967-3.403-1.188-4.488-.676C5.554 2.58 4.925 5.3 4.369 7.7c-.546 2.367-1.067 4.62-2.604 5.167.911 1.38 2.356 1.22 2.817 1.124 1.008-.207 2.029-.96 2.029-1.998a.5.5 0 1 1 1 0c0 1.389-1.19 2.64-2.829 2.977-.245.05-.51.079-.782.079"/>
        <path d="M7.892 6.988l-.407 1.626a.499.499 0 0 1-.485.38c-.494 0-.625.653-.625 1 0 .345.13 1 .625 1 .245 0 .453.176.494.417.48 2.886 3.559 4.21 4.506 4.553.948-.343 4.026-1.667 4.507-4.553a.5.5 0 0 1 .493-.418c.495 0 .625-.654.625-1s-.13-1-.625-1a.498.498 0 0 1-.484-.379l-.407-1.626c-2.643-.067-3.57-.818-4.11-1.6-.54.782-1.464 1.533-4.107 1.6M12 16.993a.503.503 0 0 1-.158-.026C9.669 16.243 7.2 14.55 6.58 11.933c-.718-.21-1.205-.963-1.205-1.94 0-.49.13-.955.366-1.309.216-.324.512-.543.856-.637l.419-1.675a.498.498 0 0 1 .484-.379c2.984 0 3.487-.84 3.819-1.397.099-.165.193-.32.328-.457a.516.516 0 0 1 .707 0c.135.136.229.292.328.457.332.557.834 1.397 3.818 1.397.23 0 .43.156.485.38l.42 1.675c.726.204 1.22.96 1.22 1.945 0 .977-.486 1.73-1.204 1.94-.62 2.617-3.09 4.31-5.262 5.034a.51.51 0 0 1-.16.026"/>
        <path d="M24 24H0v-2.007c0-3.292 3.528-4.768 7.264-6.332.677-.283 1.369-.573 2.061-.88a.5.5 0 1 1 .406.914c-.698.31-1.398.603-2.081.889C4.082 18.077 1 19.367 1 21.993V23h22v-1.007c0-2.626-3.082-3.916-6.65-5.409a105.57 105.57 0 0 1-2.082-.889.5.5 0 1 1 .406-.914c.692.307 1.385.597 2.062.881C20.471 17.225 24 18.701 24 21.993V24z"/>
        <path d="M12 23.993a.5.5 0 0 1-.5-.5c0-1.2-1.451-1.982-2.987-2.81C6.786 19.753 5 18.793 5 16.993a.5.5 0 0 1 1 0c0 1.201 1.451 1.982 2.987 2.81 1.727.93 3.513 1.891 3.513 3.69a.5.5 0 0 1-.5.5"/>
        <path d="M12 23.993a.5.5 0 0 1-.5-.5c0-1.799 1.786-2.76 3.513-3.69 1.536-.828 2.987-1.609 2.987-2.81a.5.5 0 0 1 1 0c0 1.8-1.786 2.76-3.513 3.69-1.536.828-2.987 1.61-2.987 2.81a.5.5 0 0 1-.5.5M11 9.495a.5.5 0 0 1-.5-.492c-.094-.01-.249-.009-.363-.008h-.274a3.26 3.26 0 0 0-.362.008c-.032.25-.244.465-.499.465-.276 0-.502-.197-.502-.473 0-.298.089-.538.266-.713.297-.294.708-.289 1.105-.287h.258c.4-.002.81-.007 1.105.287.177.175.266.415.266.713a.5.5 0 0 1-.5.5M15 9.495a.5.5 0 0 1-.5-.492c-.094-.01-.251-.009-.363-.008h-.274a3.255 3.255 0 0 0-.362.008c-.032.25-.244.465-.499.465-.276 0-.502-.197-.502-.473 0-.298.089-.538.266-.713.297-.294.706-.289 1.105-.287h.258c.399-.002.809-.007 1.105.287.177.175.266.415.266.713a.5.5 0 0 1-.5.5"/>
    </g>
</svg>
