<svg xmlns="http://www.w3.org/2000/svg" width="24" height="16" viewBox="0 0 24 16">
    <g fill="#00D4D0" fill-rule="evenodd">
        <path d="M9 1v3a1 1 0 0 0 1 1h12a1 1 0 0 0 1-1V1H9zm13 5H10c-1.102 0-2-.897-2-2V.5a.5.5 0 0 1 .5-.5h15a.5.5 0 0 1 .5.5V4c0 1.103-.898 2-2 2z"/>
        <path d="M8.5 1h-8a.5.5 0 0 1 0-1h8a.5.5 0 0 1 0 1M13.545 11.469c-.554 1.066-1.045 2.182-1.045 2.53a1 1 0 0 0 1 1h5a1 1 0 0 0 1-1c0-.348-.491-1.465-1.045-2.53l-.54.809c-.094.143-.25.199-.427.222a.497.497 0 0 1-.417-.243L16 10.472l-1.071 1.785a.497.497 0 0 1-.417.243c-.181-.025-.333-.08-.428-.222l-.54-.81zm4.955 4.53h-5c-1.102 0-2-.896-2-2 0-.912 1.303-3.278 1.565-3.744A.5.5 0 0 1 13.48 10a.474.474 0 0 1 .435.223l.562.843 1.093-1.823c.18-.302.678-.302.858 0l1.094 1.823.56-.843A.461.461 0 0 1 18.52 10a.502.502 0 0 1 .416.255c.26.466 1.564 2.832 1.564 3.745 0 1.103-.897 2-2 2z"/>
    </g>
</svg>
