<svg xmlns="http://www.w3.org/2000/svg" width="20" height="24" viewBox="0 0 20 24">
    <g fill="none" fill-rule="evenodd">
        <path d="M-4-3h30v30H-4z"/>
        <g fill="#00D4D0">
            <path d="M.63 15.742c.773 0 1.126.218 1.572.493.505.313 1.078.669 2.182.669 1.103 0 1.677-.354 2.183-.669.446-.276.798-.493 1.573-.493.772 0 1.125.218 1.57.493.507.313 1.079.669 2.183.669 1.104 0 1.678-.354 2.183-.669.446-.276.799-.493 1.573-.493.774 0 1.126.218 1.572.493.507.313 1.08.669 2.184.669a.58.58 0 0 0 0-1.162c-.774 0-1.127-.217-1.573-.494-.506-.313-1.08-.667-2.183-.667-.26 0-.489.021-.696.055V2.775c0-.747.608-1.355 1.355-1.355s1.355.608 1.355 1.355a.58.58 0 0 0 1.161 0A2.518 2.518 0 0 0 16.308.258a2.518 2.518 0 0 0-2.516 2.517v4.354H6.437V2.775c0-.747.608-1.355 1.355-1.355s1.355.608 1.355 1.355a.58.58 0 0 0 1.161 0A2.518 2.518 0 0 0 7.792.258a2.518 2.518 0 0 0-2.516 2.517v12.58c0 .082.018.159.048.232a2.524 2.524 0 0 1-.94.155c-.773 0-1.125-.217-1.572-.493-.506-.313-1.078-.668-2.181-.668a.58.58 0 0 0 0 1.161zm12.834-.494c-.446.277-.799.494-1.573.494-.773 0-1.125-.217-1.571-.492-.507-.313-1.078-.669-2.182-.669-.777 0-1.288.177-1.701.39V12.55h7.355v2.505c-.114.064-.223.13-.328.194zm.328-6.957v3.096H6.437V8.291h7.355zM19.405 19.226c-.774 0-1.127-.217-1.573-.494-.506-.313-1.08-.667-2.183-.667-1.104 0-1.677.354-2.184.667-.446.277-.798.494-1.572.494-.773 0-1.125-.217-1.571-.493-.507-.313-1.079-.668-2.182-.668-1.104 0-1.677.354-2.184.667-.446.277-.798.494-1.572.494-.773 0-1.125-.217-1.571-.493-.507-.313-1.079-.668-2.182-.668a.58.58 0 0 0 0 1.161c.772 0 1.125.218 1.57.493.506.313 1.079.669 2.183.669 1.103 0 1.677-.354 2.183-.669.446-.276.798-.493 1.573-.493.772 0 1.125.218 1.57.493.507.313 1.079.669 2.183.669 1.104 0 1.678-.354 2.183-.669.446-.276.799-.493 1.573-.493.774 0 1.126.218 1.572.493.507.313 1.08.669 2.184.669a.58.58 0 0 0 0-1.162zM19.405 22.71c-.774 0-1.127-.218-1.573-.494-.506-.313-1.08-.667-2.183-.667-1.104 0-1.677.354-2.184.667-.446.276-.798.494-1.572.494-.773 0-1.125-.218-1.571-.493-.507-.313-1.079-.668-2.182-.668-1.104 0-1.677.354-2.184.667-.446.276-.798.494-1.572.494-.773 0-1.125-.218-1.571-.493-.507-.313-1.079-.668-2.182-.668a.58.58 0 0 0 0 1.161c.772 0 1.125.218 1.57.493.506.313 1.079.668 2.183.668 1.103 0 1.677-.353 2.183-.668.446-.277.798-.493 1.573-.493.772 0 1.125.218 1.57.493.507.313 1.079.668 2.183.668 1.104 0 1.678-.353 2.183-.668.446-.277.799-.493 1.573-.493.774 0 1.126.218 1.572.493.507.313 1.08.668 2.184.668a.58.58 0 0 0 0-1.16z"/>
        </g>
    </g>
</svg>
