<svg xmlns="http://www.w3.org/2000/svg" width="24" height="25" viewBox="0 0 24 25">
    <path fill="#00D4D0" fill-rule="evenodd" d="M14.635 12.866a.503.503 0 0 1 .495.43c.328 2.303.407 4.251.47 5.815.139 3.448.297 4.255 1.535 4.255.653 0 1.068-.125 1.344-.404.836-.85.794-3.514.717-8.35-.028-1.759-.061-3.825-.061-6.246 0-.133.053-.26.146-.354l3-3a1.953 1.953 0 0 0 0-2.792c-.755-.756-2.037-.756-2.792 0l-3 3a.504.504 0 0 1-.354.146c-1.65 0-3.14-.01-4.48-.018a486.156 486.156 0 0 0-3.004-.013c-6.181 0-7.516.36-7.516 2.031 0 1.24.808 1.398 4.265 1.536 1.563.063 3.508.141 5.805.47a.503.503 0 0 1 .405.336.505.505 0 0 1-.121.512l-6 6a.504.504 0 0 1-.354.146h-2.5c-.827 0-1.5.673-1.5 1.5 0 1.07.606 1.285 2.1 1.708.335.095.69.195 1.058.317a.5.5 0 0 1 .317.317c.115.347.212.688.303 1.013.419 1.488.65 2.145 1.722 2.145.827 0 1.5-.673 1.5-1.5v-2.5c0-.133.053-.26.146-.354l6-6a.502.502 0 0 1 .354-.146m2.5 11.5c-2.324 0-2.408-2.074-2.534-5.215-.053-1.307-.116-2.888-.331-4.713l-5.135 5.135v2.293c0 1.38-1.121 2.5-2.5 2.5-1.874 0-2.286-1.46-2.685-2.873a27.757 27.757 0 0 0-.212-.73c-.268-.084-.527-.157-.775-.227-1.454-.41-2.828-.8-2.828-2.67 0-1.379 1.12-2.5 2.5-2.5h2.293l5.135-5.135c-1.82-.214-3.397-.277-4.703-.329C2.213 9.775.135 9.692.135 7.366c0-2.896 2.92-3.03 8.516-3.03.909 0 1.91.005 3.009.012 1.284.008 2.703.017 4.268.018l2.853-2.854c1.133-1.132 3.075-1.132 4.208 0a2.947 2.947 0 0 1 0 4.208l-2.854 2.853c.002 2.326.033 4.32.06 6.023.086 5.437.126 7.92-1.004 9.067-.472.48-1.125.703-2.056.703"/>
</svg>
