<?xml version="1.0" encoding="UTF-8"?>
<svg width="18px" height="24px" viewBox="0 0 18 24" version="1.1" xmlns="http://www.w3.org/2000/svg" xmlns:xlink="http://www.w3.org/1999/xlink">
    <!-- Generator: Sketch 44.1 (41455) - http://www.bohemiancoding.com/sketch -->
    <title>Artboard</title>
    <desc>Created with Sketch.</desc>
    <defs></defs>
    <g id="Page-1" stroke="none" stroke-width="1" fill="none" fill-rule="evenodd">
        <g id="Artboard" fill="#00D4D0">
            <g id="fill-5839" transform="translate(8.000000, 1.000000)">
                <path d="M1,0.5 C0.723857625,0.5 0.5,0.723857625 0.5,1 C0.5,1.27614237 0.723857625,1.5 1,1.5 C1.27614237,1.5 1.5,1.27614237 1.5,1 C1.5,0.723857625 1.27614237,0.5 1,0.5" id="Shape"></path>
            </g>
            <g id="fill-5838" transform="translate(2.000000, 3.000000)">
                <path d="M1,16 L13,16 L13,1 L1,1 L1,16 Z M13.5,17 L0.5,17 C0.223857625,17 3.38176876e-17,16.7761424 0,16.5 L0,0.5 C-3.38176876e-17,0.223857625 0.223857625,5.07265313e-17 0.5,0 L13.5,0 C13.7761424,1.69088438e-17 14,0.223857625 14,0.5 L14,16.5 C14,16.7761424 13.7761424,17 13.5,17 Z" id="Shape"></path>
            </g>
            <g id="fill-5837" transform="translate(7.000000, 20.000000)">
                <path d="M2,0.5 C1.63242834,0.483549355 1.28551422,0.67027798 1.09681456,0.986145021 C0.908114909,1.30201206 0.908114909,1.69598794 1.09681456,2.01185498 C1.28551422,2.32772202 1.63242834,2.51445064 2,2.498 C2.53436342,2.4740846 2.95528982,2.03389832 2.95528982,1.499 C2.95528982,0.964101684 2.53436342,0.523915399 2,0.5" id="Shape"></path>
            </g>
            <g id="fill-5836">
                <path d="M2.5,1 C1.673,1 1,1.673 1,2.5 L1,21.5 C1,22.327 1.673,23 2.5,23 L15.5,23 C16.327,23 17,22.327 17,21.5 L17,2.5 C17,1.673 16.327,1 15.5,1 L2.5,1 Z M15.5,24 L2.5,24 C1.11997342,23.9983469 0.00165305817,22.8800266 -2.77888823e-16,21.5 L-2.77888823e-16,2.5 C0,1.122 1.121,0 2.5,0 L15.5,0 C16.879,0 18,1.122 18,2.5 L18,21.5 C18,22.878 16.879,24 15.5,24 Z" id="Shape"></path>
            </g>
        </g>
    </g>
</svg>