<svg xmlns="http://www.w3.org/2000/svg" width="24" height="15" viewBox="0 0 24 15">
    <g fill="#00D4D0" fill-rule="evenodd">
        <path d="M3.707 14h16.586l1-1H2.707l1 1zM20.5 15h-17a.5.5 0 0 1-.353-.146l-2-2A.501.501 0 0 1 1.5 12h21a.5.5 0 0 1 .354.854l-2 2A.504.504 0 0 1 20.5 15z"/>
        <path d="M23.5 13H.5a.5.5 0 0 1 0-1h23a.5.5 0 0 1 0 1M12 1a1 1 0 1 0 0 2 1 1 0 0 0 0-2m0 3c-1.102 0-2-.897-2-2s.898-2 2-2c1.102 0 2 .897 2 2s-.898 2-2 2"/>
        <path d="M21 13a.5.5 0 0 1-.5-.5C20.5 7.813 16.687 4 12 4c-4.687 0-8.5 3.813-8.5 8.5a.5.5 0 0 1-1 0C2.5 7.262 6.762 3 12 3s9.5 4.262 9.5 9.5a.5.5 0 0 1-.5.5"/>
        <path d="M6.522 9.5a.5.5 0 0 1-.421-.77A6.974 6.974 0 0 1 12 5.5a.5.5 0 1 1 0 1 5.975 5.975 0 0 0-5.056 2.77.499.499 0 0 1-.42.23"/>
    </g>
</svg>
