<svg xmlns="http://www.w3.org/2000/svg" width="24" height="25" viewBox="0 0 24 25">
    <g fill="#00D4D0" fill-rule="evenodd">
        <path d="M3.918 23.5h16.165l1.818-10H2.099l1.819 10zm16.582 1h-17a.5.5 0 0 1-.491-.41l-2-11a.497.497 0 0 1 .108-.41.494.494 0 0 1 .383-.18h21c.148 0 .29.065.384.18a.497.497 0 0 1 .107.41l-2 11a.5.5 0 0 1-.491.41zM22.5 11.5h-21a.497.497 0 0 1-.488-.608l.915-4.12A6.693 6.693 0 0 1 8.5 1.5a.5.5 0 0 1 0 1 5.7 5.7 0 0 0-5.597 4.489l-.78 3.511h19.754l-.78-3.511A5.7 5.7 0 0 0 15.5 2.5a.5.5 0 0 1 0-1 6.694 6.694 0 0 1 6.573 5.272l.915 4.12a.5.5 0 0 1-.488.608"/>
        <path d="M1 12.5h22v-1H1v1zm22.5 1H.5A.5.5 0 0 1 0 13v-2a.5.5 0 0 1 .5-.5h23a.5.5 0 0 1 .5.5v2a.5.5 0 0 1-.5.5zM14.5 21.5a.5.5 0 0 1-.5-.5v-6a.5.5 0 0 1 1 0v6a.5.5 0 0 1-.5.5M18.5 21.5a.5.5 0 0 1-.5-.5v-6a.5.5 0 0 1 1 0v6a.5.5 0 0 1-.5.5M9.5 21.5A.5.5 0 0 1 9 21v-6a.5.5 0 0 1 1 0v6a.5.5 0 0 1-.5.5M5.5 21.5A.5.5 0 0 1 5 21v-6a.5.5 0 0 1 1 0v6a.5.5 0 0 1-.5.5M9.5 1.5a.5.5 0 0 0 0 1h5a.5.5 0 0 0 0-1h-5zm5 2h-5C8.673 3.5 8 2.827 8 2S8.673.5 9.5.5h5c.827 0 1.5.673 1.5 1.5s-.673 1.5-1.5 1.5z"/>
    </g>
</svg>
