<svg xmlns="http://www.w3.org/2000/svg" width="18" height="25" viewBox="0 0 18 25">
    <g fill="#00D4D0" fill-rule="evenodd">
        <path d="M11.746 24.51a1.88 1.88 0 0 1-1.172-.391 1.545 1.545 0 0 1-.578-1.234.542.542 0 0 0-.203-.453.882.882 0 0 0-.547-.172c-.077 0-.75.018-.75.625 0 1.606-1.98 1.985-2.922 1.234a1.545 1.545 0 0 1-.578-1.234.542.542 0 0 0-.203-.453.882.882 0 0 0-.547-.172c-.077 0-.75.018-.75.625 0 .572-.296 1.063-.812 1.348-.608.334-1.396.318-1.96-.04a.502.502 0 0 1-.157-.69.506.506 0 0 1 .691-.155c.256.16.66.164.944.009.195-.108.294-.267.294-.472 0-2.133 3.5-2.133 3.5 0 0 .607.673.625.75.625.077 0 .75-.018.75-.625 0-2.133 3.5-2.133 3.5 0 0 .607.673.625.75.625.077 0 .75-.018.75-.625 0-2.133 3.5-2.133 3.5 0 0 .073 0 .298.277.45.286.157.7.15.963-.018a.498.498 0 1 1 .535.843c-.567.36-1.382.379-1.98.05a1.482 1.482 0 0 1-.795-1.325.542.542 0 0 0-.203-.453.882.882 0 0 0-.547-.172c-.077 0-.75.018-.75.625 0 1.066-.88 1.625-1.75 1.625"/>
        <path d="M8.996 22.385a.5.5 0 0 1-.5-.5v-12a.5.5 0 0 1 1 0v12a.5.5 0 0 1-.5.5"/>
        <path d="M17.496 12.385a.45.45 0 0 1-.114-.014l-8.386-1.972L.61 12.37a.49.49 0 0 1-.6-.372.497.497 0 0 1 .372-.6L8.996 9.37l8.614 2.028c.27.062.436.332.372.6a.497.497 0 0 1-.486.386"/>
        <path d="M3.51 21.756l-2.5-9.985.972-.243 2.5 9.986zM14.481 21.815l-.97-.242 2.5-10.045.97.242zM14.496 11.679a.5.5 0 0 1-.5-.5v-3.17c0-.826-.673-1.5-1.5-1.5h-7c-.827 0-1.5.674-1.5 1.5v3.17a.5.5 0 0 1-1 0v-3.17c0-1.378 1.121-2.5 2.5-2.5h7c1.38 0 2.5 1.122 2.5 2.5v3.17a.5.5 0 0 1-.5.5"/>
        <path d="M11.496 8.51h-5a.5.5 0 0 1 0-1h5a.5.5 0 0 1 0 1M10.51 6.492a.5.5 0 0 1-.5-.5v-4.5H7.983v4.5a.5.5 0 0 1-1 0v-5a.5.5 0 0 1 .5-.5h3.029a.5.5 0 0 1 .5.5v5a.5.5 0 0 1-.5.5"/>
        <path d="M10.496 4.512h-3a.5.5 0 0 1 0-1h3a.5.5 0 0 1 0 1M2.313 15.458a.501.501 0 0 1-.149-.978l6.683-2.073a.514.514 0 0 1 .296 0l6.65 2.053a.5.5 0 1 1-.294.955l-6.503-2.007-6.536 2.028a.506.506 0 0 1-.147.022"/>
    </g>
</svg>
