<svg xmlns="http://www.w3.org/2000/svg" width="22" height="24" viewBox="0 0 22 24">
    <g fill="none" fill-rule="evenodd">
        <g fill="#00D4D0">
            <path d="M21.478 13.845c0-.71-.64-1.122-1.223-1.367-.688-.294-1.505-.473-2.244-.6-.951-.172-1.934-.29-2.922-.373h-.033a.378.378 0 0 0-.01.755c0 .034 5.683.378 5.683 1.589 0 .333-.4.622-1.088.86a11.591 11.591 0 0 0-1.422-.428c-.95-.233-1.928-.39-2.9-.5-.15-.561-.4-1.1-.733-1.556a4.151 4.151 0 0 0-2.255-1.571v-.484c.878-.421 1.5-1.255 1.855-2.205 1.306-1.278 2.478-2.75 1.701-4.75-.378-.966-1.14-1.679-2.05-2.117-.789-.662-1.994-.973-2.9-1.023-1.95-.105-3.81.733-4.678 2.556a3.957 3.957 0 0 0-.31 2.5c.261 1.273 1.038 2.123 1.91 2.94.361.904.967 1.693 1.812 2.1v.483a4.158 4.158 0 0 0-2.255 1.571 4.611 4.611 0 0 0-.733 1.556c-.973.11-1.95.267-2.9.5-.345.083-.883.223-1.422.429-.689-.239-1.088-.523-1.088-.861 0-1.211 5.683-1.556 5.683-1.589a.378.378 0 0 0-.01-.755h-.034c-.988.083-1.973.2-2.922.373-.738.132-1.556.31-2.245.6-.578.245-1.222.661-1.222 1.367 0 .072.005.14.017.206a.405.405 0 0 0-.017.117v8.206a.372.372 0 1 0 .744 0l-.005-5.568c.15.095.317.172.473.238.483.206 1.022.35 1.561.466v5.473a.372.372 0 1 0 .745 0v-5.328c.944.167 1.928.284 2.917.367v5.322a.372.372 0 1 0 .744 0v-5.272c.978.061 1.961.088 2.917.095v5.39a.372.372 0 1 0 .745 0v-5.39a51.55 51.55 0 0 0 2.916-.095v5.272a.372.372 0 1 0 .745 0v-5.322a29.105 29.105 0 0 0 2.917-.367v5.333a.372.372 0 1 0 .745 0V17.51c.534-.117 1.078-.261 1.56-.466.156-.066.323-.144.474-.238v5.605a.372.372 0 1 0 .744 0l-.004-8.24a.405.405 0 0 0-.016-.117.667.667 0 0 0 .033-.21v.001zm-7.527-6.69s-.216-1.86-2.606-2.605c-1.845-.572-1.821-3.295.262-3.239 3.077.078 5.349 3.017 2.344 5.844zM6.934 2.944c.7-1.478 2.11-2.078 3.478-2.133-1.395.7-1.534 2.706-.368 3.828-1.955.478-2.049 2.517-2.049 2.517-1.512-1.423-1.64-2.995-1.061-4.212zm1.672 4.772c.044-.54.188-1.044.433-1.473.35-.617.917-.889 1.617-.944.133-.011.278-.027.429-.044a.112.112 0 0 0 .039.012c.694.216 1.338.595 1.75 1.206.267.4.411.877.472 1.36-.404.983-1.166 1.806-2.345 1.806-1.229 0-1.996-.89-2.395-1.923zM6.6 14.161a4.637 4.637 0 0 0-.056.461v.04a.372.372 0 1 0 .745 0c.095-1.368 1.04-3.133 3.133-3.412v-.845c.184.034.378.056.583.056.2 0 .395-.017.584-.056v.845c2.088.277 3.039 2.05 3.132 3.411a.372.372 0 1 0 .745 0v-.039a4.126 4.126 0 0 0-.056-.46c1.429.166 2.667.416 3.618.722-3.69.939-12.356.939-16.04 0 .946-.3 2.184-.55 3.613-.723zm4.4 3.267c-5.355 0-9.7-.777-9.728-1.738v-.716c.15.095.316.172.473.238.688.294 1.505.473 2.244.6 3.934.706 10.111.7 14.022 0 .739-.132 1.556-.31 2.245-.6.155-.066.322-.144.473-.238v.706c-.001.964-4.357 1.748-9.73 1.748H11z"/>
            <path d="M3.022 11.578c.167.122.4.089.522-.072a.377.377 0 0 0-.071-.522c-1.096-.939.033-1.845.438-2.566.444-.79.534-1.728.022-2.5a.366.366 0 0 0-.522-.072.366.366 0 0 0-.071.522c.034.05.044.067.071.133.44.988-.25 1.645-.728 2.35-.634.926-.55 1.982.339 2.727zM3.461 5.2c0 .497-.745.497-.745 0s.745-.497.745 0M18.466 11.461c.167.122.4.089.522-.072a.377.377 0 0 0-.071-.522c-1.096-.939.033-1.845.438-2.566.444-.79.534-1.728.022-2.5a.366.366 0 0 0-.522-.072.366.366 0 0 0-.071.522c.034.05.044.067.071.133.44.988-.25 1.645-.728 2.35-.627.928-.544 1.989.339 2.727zM18.911 5.083c0 .496-.744.496-.744 0s.744-.496.744 0"/>
        </g>
        <path d="M-4-3h30v30H-4z"/>
    </g>
</svg>
