<svg xmlns="http://www.w3.org/2000/svg" width="24" height="22" viewBox="0 0 24 22">
    <g fill="#00D4D0" fill-rule="evenodd">
        <path d="M9.394 8.878l12.18 12.376-.534.526L8.86 9.404z"/>
        <path d="M7.532 10.607c-.594 0-1.15-.233-1.562-.656L.793 4.657a2.187 2.187 0 0 1 .035-3.086L1.607.81c.409-.4.952-.62 1.526-.62.594 0 1.148.232 1.561.654L9.87 6.14c.406.415.626.965.62 1.55a2.167 2.167 0 0 1-.655 1.537l-.778.76c-.409.4-.95.62-1.525.62zM3.134.939c-.378 0-.734.145-1.002.407l-.78.76a1.436 1.436 0 0 0-.023 2.026l5.177 5.295c.271.277.635.43 1.026.43.378 0 .733-.145 1.001-.406l.778-.761c.272-.267.424-.625.429-1.01a1.426 1.426 0 0 0-.406-1.017L4.158 1.368A1.418 1.418 0 0 0 3.134.939zM14.604 8.875l.535.526L2.963 21.78l-.535-.526z"/>
        <path d="M16.468 10.607a2.17 2.17 0 0 1-1.525-.619l-.778-.761a2.167 2.167 0 0 1-.655-1.537 2.168 2.168 0 0 1 .62-1.55L19.307.844a2.16 2.16 0 0 1 1.559-.655c.575 0 1.117.22 1.526.621l.778.76c.86.842.876 2.227.036 3.087L18.028 9.95c-.41.423-.966.656-1.56.656zM20.867.939c-.39 0-.754.152-1.023.429l-5.178 5.296a1.42 1.42 0 0 0-.406 1.018c.005.384.157.742.429 1.009l.778.76c.268.262.623.407 1.001.407.391 0 .755-.152 1.025-.43l5.178-5.295a1.436 1.436 0 0 0-.024-2.025l-.778-.76a1.421 1.421 0 0 0-1.002-.409z"/>
    </g>
</svg>
