<svg xmlns="http://www.w3.org/2000/svg" width="21" height="24" viewBox="0 0 21 24">
    <g fill="#00D4D0" fill-rule="evenodd">
        <path d="M1.5 15h18v-3c0-.551-.449-1-1-1h-5.023a1.498 1.498 0 0 1-1.392-2.058 5.787 5.787 0 0 0 .415-2.157V3c0-1.103-.897-2-2-2s-2 .897-2 2v3.785c0 .742.14 1.468.415 2.158A1.497 1.497 0 0 1 7.523 11H2.5c-.551 0-1 .449-1 1v3zm19 1H.5v-4c0-1.103.897-2 2-2h5.023a.499.499 0 0 0 .464-.686A6.792 6.792 0 0 1 7.5 6.785V3c0-1.654 1.346-3 3-3s3 1.346 3 3v3.785c0 .871-.164 1.722-.487 2.529a.498.498 0 0 0 .464.686H18.5c1.103 0 2 .897 2 2v4z"/>
        <path d="M7 23h11.5v-7h-16v7h1.691l1.862-3.724A.501.501 0 0 1 7 19.5V23zm12 1H6.5a.5.5 0 0 1-.5-.5v-1.882l-1.053 2.106A.5.5 0 0 1 4.5 24H2a.5.5 0 0 1-.5-.5v-8A.5.5 0 0 1 2 15h17a.5.5 0 0 1 .5.5v8a.5.5 0 0 1-.5.5z"/>
        <path d="M17 24a.5.5 0 0 1-.5-.5v-5a.5.5 0 0 1 1 0v5a.5.5 0 0 1-.5.5M15 24a.5.5 0 0 1-.5-.5v-4a.5.5 0 0 1 1 0v4a.5.5 0 0 1-.5.5M13 24a.5.5 0 0 1-.5-.5V21a.5.5 0 0 1 1 0v2.5a.5.5 0 0 1-.5.5M10.5 4c-.551 0-1-.449-1-1 0-.551.449-1 1-1 .551 0 1 .449 1 1 0 .551-.449 1-1 1"/>
    </g>
</svg>
