<svg xmlns="http://www.w3.org/2000/svg" width="24" height="21" viewBox="0 0 24 21">
    <g fill="#00D4D0" fill-rule="evenodd">
        <path d="M2 16h2v-4.5h.5c.222 0 .499 0 .5-1V8H1v2.5c0 1 .277 1 .5 1H2V16zm3 1H1v-4.568c-.664-.202-1-.849-1-1.932V7h6v3.5c-.001 1.083-.337 1.73-1 1.932V17zM20 16h2v-4.5h.5c.222 0 .499 0 .5-1V8h-4v2.5c0 1 .277 1 .5 1h.5V16zm3 1h-4v-4.568c-.664-.202-1-.849-1-1.932V7h6v3.5c-.001 1.083-.337 1.73-1 1.932V17zM11 20h2v-6h.5c.827 0 1.5-.672 1.5-1.5V8H9v4.5c0 .828.673 1.5 1.5 1.5h.5v6zm3 1h-4v-6.05a2.504 2.504 0 0 1-2-2.45V7h8v5.5c0 1.209-.86 2.217-2 2.45V21zM21 2a2 2 0 1 0 0 4 2 2 0 0 0 0-4m0 1a1.001 1.001 0 0 1 0 2 1.001 1.001 0 0 1 0-2M3 2a2 2 0 1 0 0 4 2 2 0 0 0 0-4m0 1a1.001 1.001 0 0 1 0 2 1.001 1.001 0 0 1 0-2M12 0a3 3 0 1 0 0 6 3 3 0 0 0 0-6m0 1c1.103 0 2 .897 2 2s-.897 2-2 2-2-.897-2-2 .897-2 2-2"/>
    </g>
</svg>
