<svg xmlns="http://www.w3.org/2000/svg" width="25" height="24" viewBox="0 0 25 24">
    <g fill="#00D4D0" fill-rule="evenodd">
        <path d="M24.5 24H.5v-3a4.521 4.521 0 0 1 2.92-4.214l6.383-1.768a.5.5 0 0 1 .267.964l-6.341 1.754C2.413 18.232 1.5 19.549 1.5 21v2h22v-2a3.516 3.516 0 0 0-2.271-3.277l-6.28-1.741a.5.5 0 0 1 .268-.964l6.321 1.754c1.789.669 2.962 2.363 2.962 4.228v3zM11.5 10.002a.5.5 0 0 1-.5-.493 3.53 3.53 0 0 0-.363-.008h-.274a3.26 3.26 0 0 0-.362.008c-.032.25-.244.466-.499.466-.276 0-.502-.197-.502-.473 0-.299.089-.539.266-.713.296-.294.71-.291 1.105-.287h.258c.402-.005.809-.008 1.105.287.177.175.266.415.266.713a.5.5 0 0 1-.5.5M15.5 10.002a.5.5 0 0 1-.5-.493 3.543 3.543 0 0 0-.363-.008h-.274a3.255 3.255 0 0 0-.362.008c-.032.25-.244.466-.499.466-.276 0-.502-.197-.502-.473 0-.299.089-.539.266-.713.297-.294.708-.291 1.105-.287h.258c.401-.005.809-.008 1.105.287.177.175.266.415.266.713a.5.5 0 0 1-.5.5"/>
        <path d="M12.5 17.027c-1.563 0-5.177-1.968-5.48-5.105-.685-.235-1.145-.972-1.145-1.922 0-.49.13-.955.365-1.309.196-.294.457-.5.76-.607V6.5a.5.5 0 1 1 1 0v2a.5.5 0 0 1-.5.5c-.113 0-.281.025-.428.246-.125.188-.197.463-.197.754 0 .345.131 1 .625 1a.5.5 0 0 1 .5.5c0 2.615 3.158 4.527 4.5 4.527a.5.5 0 0 1 0 1"/>
        <path d="M12.5 17.027a.5.5 0 0 1 0-1c1.342 0 4.5-1.912 4.5-4.527a.5.5 0 0 1 .5-.5c.113 0 .281-.026.428-.246.125-.188.197-.463.197-.754 0-.346-.131-1-.625-1a.5.5 0 0 1-.5-.5v-2a.5.5 0 1 1 1 0v1.585c.674.241 1.125.973 1.125 1.915 0 .95-.46 1.687-1.145 1.922-.303 3.137-3.916 5.105-5.48 5.105M17 20.232l1 .667 1-.667V19h-2v1.232zM18 22a.498.498 0 0 1-.277-.084l-1.5-1A.501.501 0 0 1 16 20.5v-2a.5.5 0 0 1 .5-.5h3a.5.5 0 0 1 .5.5v2a.499.499 0 0 1-.223.416l-1.5 1A.498.498 0 0 1 18 22zM12.5 4a.502.502 0 0 1-.354-.146l-.5-.5A.504.504 0 0 1 11.5 3V2a.5.5 0 0 1 .5-.5h1a.5.5 0 0 1 .5.5v1c0 .133-.053.26-.146.354l-.5.5A.502.502 0 0 1 12.5 4"/>
        <path d="M7.228 5.5c.433.592 1.68 1.5 5.271 1.5 3.585 0 4.835-.903 5.27-1.5H7.229zM12.498 8C6.073 8 6 5.123 6 5a.5.5 0 0 1 .5-.5h12a.5.5 0 0 1 .5.5c0 .123-.072 3-6.5 3z"/>
        <path d="M6 4.5h13V3.478c-1.303-.118-2.155-.687-2.982-1.24C15.065 1.601 14.165 1 12.5 1c-1.59 0-2.34.536-3.21 1.157-.8.572-1.699 1.214-3.29 1.326V4.5zm13.5 1h-14A.5.5 0 0 1 5 5V3a.5.5 0 0 1 .5-.5c1.59 0 2.34-.536 3.21-1.157C9.591.713 10.59 0 12.5 0c1.969 0 3.087.747 4.073 1.406.878.587 1.637 1.094 2.927 1.094a.5.5 0 0 1 .5.5v2a.5.5 0 0 1-.5.5zM11 24a.5.5 0 0 1-.5-.5v-7.187a.5.5 0 1 1 1 0V23.5a.5.5 0 0 1-.5.5M14 24a.5.5 0 0 1-.5-.5v-7.187a.5.5 0 1 1 1 0V23.5a.5.5 0 0 1-.5.5"/>
    </g>
</svg>
