<svg xmlns="http://www.w3.org/2000/svg" width="30" height="30" viewBox="0 0 30 30">
    <path fill="#00D4D0" fill-rule="evenodd" d="M23.482 8.664a.329.329 0 1 0 0-.658H22.29V6.058h1.19a.329.329 0 1 0 0-.658H3.33a.329.329 0 1 0 0 .658h18.304v1.947l-18.304.001a.329.329 0 1 0 0 .658h18.304v1.948H3.329a.329.329 0 1 0 0 .658h18.304v1.948H3.329a.329.329 0 1 0 0 .658h18.304v1.948l-18.304.001a.329.329 0 1 0 0 .658h18.304v1.947l-18.304.001a.329.329 0 1 0 0 .658h18.304v4.73a1.316 1.316 0 0 0-.984 1.273v1.579c0 .18.146.329.329.329h1.968a.33.33 0 0 0 .33-.33v-1.578c0-.611-.419-1.126-.985-1.273v-4.73h1.192a.329.329 0 1 0 0-.658h-1.191v-1.948h1.19a.329.329 0 1 0 0-.658h-1.19v-1.947h1.19a.329.329 0 1 0 0-.658h-1.19v-1.948h1.19a.329.329 0 1 0 0-.658h-1.19V8.667l1.19-.003zm-.865 16.428v1.25h-1.31v-1.25a.656.656 0 0 1 1.31 0z"/>
</svg>
