<svg xmlns="http://www.w3.org/2000/svg" width="30" height="30" viewBox="0 0 30 30">
    <g fill="none" fill-rule="evenodd">
        <path d="M0 0h30v30H0z"/>
        <path fill="#00D4D0" d="M8.656 26h12.539c.326 0 .559-.28.559-.559v-1.398c.42-.7 2.051-3.87 2.051-9.043 0-5.174-1.631-8.297-2.051-9.043V4.56A.567.567 0 0 0 21.195 4H8.656a.567.567 0 0 0-.559.559v1.398C7.631 6.703 6 9.827 6 15c0 5.174 1.631 8.297 2.051 9.043v1.398c0 .326.28.559.605.559zm11.933-1.165H9.216v-.42h11.279v.42h.094zM11.22 6.703h3.122V23.25H11.22c-1.258-5.313-1.258-11.187 0-16.547zm4.289 16.594V6.703h3.122c1.212 5.36 1.212 11.186 0 16.547H15.51v.047zM22.639 15c0 4.52-1.351 7.411-1.817 8.297h-1.025c1.211-5.36 1.211-11.187 0-16.547h1.025c.466.839 1.818 3.682 1.818 8.25zM9.217 5.165H20.59v.42H9.216v-.42zM7.166 15c0-4.52 1.351-7.411 1.817-8.297h1.025c-1.211 5.36-1.211 11.186 0 16.546H8.983c-.466-.838-1.818-3.681-1.818-8.25z"/>
    </g>
</svg>
