<svg xmlns="http://www.w3.org/2000/svg" width="23" height="22" viewBox="0 0 23 22">
    <g fill="#00D4D0" fill-rule="evenodd">
        <path d="M13.57 2.542a.726.726 0 0 0 0 1.451h4.356a.726.726 0 0 0 0-1.451h-4.357zm4.356 2.178h-4.357c-.8 0-1.452-.652-1.452-1.453 0-.8.652-1.452 1.452-1.452h4.357c.8 0 1.452.652 1.452 1.452 0 .801-.652 1.453-1.452 1.453z"/>
        <path d="M15.748 21.782a6.542 6.542 0 0 1-6.535-6.534 6.569 6.569 0 0 1 3.993-6.015V4.356a.363.363 0 1 1 .727 0V9.48a.363.363 0 0 1-.235.34 5.838 5.838 0 0 0-3.76 5.429 5.816 5.816 0 0 0 5.81 5.809 5.816 5.816 0 0 0 5.808-5.81 5.838 5.838 0 0 0-3.759-5.429.363.363 0 0 1-.235-.34V4.357a.363.363 0 1 1 .727 0v4.877a6.568 6.568 0 0 1 3.993 6.015 6.542 6.542 0 0 1-6.535 6.534M4.856 4.356h2.179V1.815c0-.2-.163-.363-.364-.363H5.22c-.201 0-.364.163-.364.363v2.541zm2.542.726H4.493a.362.362 0 0 1-.362-.362V1.815c0-.6.488-1.09 1.089-1.09H6.67c.601 0 1.09.49 1.09 1.09V4.72c0 .2-.162.362-.363.362z"/>
        <path d="M5.22 5.809H6.67v-.727H5.22v.727zm1.815.726H4.856a.363.363 0 0 1-.363-.364V4.72c0-.201.163-.364.363-.364h2.179c.2 0 .363.163.363.364V6.17c0 .201-.163.364-.363.364zM5.946 9.076c-.984 0-1.815 1.33-1.815 2.904 0 1.574.83 2.904 1.815 2.904.983 0 1.814-1.33 1.814-2.904 0-1.574-.83-2.904-1.814-2.904m0 6.535c-1.426 0-2.542-1.596-2.542-3.63 0-2.036 1.116-3.631 2.542-3.631 1.425 0 2.541 1.595 2.541 3.63s-1.116 3.63-2.541 3.63M14.23 1.815h3.036l.217-1.09h-3.471l.218 1.09zm3.332.727h-3.63a.364.364 0 0 1-.356-.292L13.214.434A.363.363 0 0 1 13.569 0h4.357a.362.362 0 0 1 .355.434L17.92 2.25a.364.364 0 0 1-.357.292zM13.237 12.01a2.546 2.546 0 0 0 2.117 2.118 2.546 2.546 0 0 0-2.117-2.117m2.51 2.873a3.27 3.27 0 0 1-3.267-3.267c0-.2.163-.363.364-.363a3.271 3.271 0 0 1 3.267 3.268c0 .2-.163.362-.363.362"/>
        <path d="M18.258 12.01a2.546 2.546 0 0 0-2.117 2.118 2.546 2.546 0 0 0 2.117-2.117m-2.51 2.873a.363.363 0 0 1-.364-.362 3.271 3.271 0 0 1 3.268-3.268c.2 0 .363.163.363.363a3.27 3.27 0 0 1-3.267 3.267M13.237 15.642a2.546 2.546 0 0 0 2.117 2.117 2.545 2.545 0 0 0-2.117-2.117m2.51 2.873a3.27 3.27 0 0 1-3.267-3.267c0-.201.163-.364.364-.364a3.271 3.271 0 0 1 3.267 3.268c0 .2-.163.363-.363.363"/>
        <path d="M18.258 15.642a2.545 2.545 0 0 0-2.117 2.117 2.546 2.546 0 0 0 2.117-2.117m-2.51 2.873a.363.363 0 0 1-.364-.363 3.271 3.271 0 0 1 3.268-3.268c.2 0 .363.163.363.364a3.27 3.27 0 0 1-3.267 3.267"/>
        <path d="M15.748 19.967a.363.363 0 0 1-.364-.363v-5.082a.363.363 0 1 1 .727 0v5.082c0 .2-.163.363-.363.363M8.917 21.782H2.974c-.97 0-1.767-.76-1.814-1.729l-.644-9.865a4.141 4.141 0 0 1 1.148-3.086A4.14 4.14 0 0 1 4.686 5.81h2.519c1.153 0 2.227.46 3.021 1.293a4.134 4.134 0 0 1 1.149 3.08l-.08 1.238a.364.364 0 0 1-.725-.048l.08-1.23a3.415 3.415 0 0 0-.949-2.538 3.419 3.419 0 0 0-2.496-1.07H4.686c-.952 0-1.84.38-2.496 1.07a3.417 3.417 0 0 0-.949 2.544l.644 9.865a1.09 1.09 0 0 0 1.09 1.044h5.942c.583 0 1.06-.456 1.088-1.038l.105-1.603a.363.363 0 1 1 .725.047l-.105 1.596a1.812 1.812 0 0 1-1.813 1.723"/>
        <path d="M8.124 17.062H3.767a.363.363 0 1 1 0-.725h4.357a.363.363 0 1 1 0 .725M8.124 18.515H3.767a.363.363 0 1 1 0-.726h4.357a.363.363 0 1 1 0 .726"/>
    </g>
</svg>
