<svg xmlns="http://www.w3.org/2000/svg" width="24" height="21" viewBox="0 0 24 21">
    <g fill="#00D4D0" fill-rule="evenodd">
        <path d="M3.5 15A2.503 2.503 0 0 0 1 17.5C1 18.879 2.122 20 3.5 20S6 18.879 6 17.5 4.878 15 3.5 15m0 6C1.57 21 0 19.43 0 17.5S1.57 14 3.5 14 7 15.57 7 17.5 5.43 21 3.5 21M3.5 1A2.503 2.503 0 0 0 1 3.5C1 4.879 2.122 6 3.5 6S6 4.879 6 3.5 4.878 1 3.5 1m0 6C1.57 7 0 5.43 0 3.5S1.57 0 3.5 0 7 1.57 7 3.5 5.43 7 3.5 7M11 16.5h-.5a.5.5 0 0 1 0-1h.5a.5.5 0 0 1 0 1M14.273 16.5h-1.091a.5.5 0 0 1 0-1h1.09a.5.5 0 0 1 0 1m3.274 0h-1.091a.5.5 0 0 1 0-1h1.09a.5.5 0 0 1 0 1m3.272 0h-1.09a.5.5 0 1 1 0-1h1.09a.5.5 0 1 1 0 1M23.5 16.5H23a.5.5 0 0 1 0-1h.5a.5.5 0 0 1 0 1"/>
        <path d="M10.919 14.5a.497.497 0 0 1-.357-.15C7.748 11.473 6 7.315 6 3.5a.5.5 0 0 1 1 0c0 3.564 1.639 7.453 4.276 10.15a.5.5 0 0 1-.357.85"/>
        <path d="M18.5 4c-3.705 0-6.935 2.375-9.02 5.576l12.66-4.989A11.43 11.43 0 0 0 18.5 4m-12 14a.5.5 0 0 1-.5-.5C6 10.795 11.46 3 18.5 3c1.818 0 3.571.382 5.209 1.135a.5.5 0 0 1-.026.919L9.872 10.497l7.809 3.037a.5.5 0 1 1-.362.932l-8.705-3.385C7.585 13.119 7 15.369 7 17.5a.5.5 0 0 1-.5.5"/>
    </g>
</svg>
