<svg xmlns="http://www.w3.org/2000/svg" width="25" height="24" viewBox="0 0 25 24">
    <g fill="#00D4D0" fill-rule="evenodd">
        <path d="M22.424 10.294h-.52v-2.39a.66.66 0 0 0-.662-.662h-.656C19.33-.089 9.617.094 9.514.094c-.501.019-.736.52-.61.872 1.07 3.22-1.377 5.25-4.11 6.272H3.762a.66.66 0 0 0-.66.66v2.391h-.525a1.994 1.994 0 0 0-1.983 1.988v9.642c0 1.097.89 1.987 1.983 1.987h19.842c1.092 0 1.983-.89 1.983-1.982v-9.647a1.98 1.98 0 0 0-1.979-1.983zM10.4 1.444c2.17.136 7.828.956 8.836 5.798H7.68C9.598 5.85 10.864 4.078 10.4 1.444zm-5.976 7.12H20.58v1.73H4.424v-1.73zm18.66 13.36a.66.66 0 0 1-.66.66H2.577a.66.66 0 0 1-.661-.66v-9.647a.66.66 0 0 1 .66-.661H22.42a.66.66 0 0 1 .66.66v9.648h.005z"/>
        <path d="M19.545 13.298H5.455a.66.66 0 0 0-.661.661v6.282c0 .365.295.66.66.66h14.091a.66.66 0 0 0 .661-.66v-6.282a.66.66 0 0 0-.66-.66zm-.66 6.282H6.114v-4.96h4.402v1.088a.66.66 0 1 0 1.322 0V14.62h1.322v2.672a.66.66 0 1 0 1.322 0V14.62h4.401v4.96z"/>
    </g>
</svg>
