<svg xmlns="http://www.w3.org/2000/svg" width="24" height="25" viewBox="0 0 24 25">
    <g fill="#00D4D0" fill-rule="evenodd">
        <path d="M7.911 6.995l-.42 2.104a.5.5 0 0 1-.49.4c-.495 0-.626.656-.626 1 0 .347.131 1 .625 1a.5.5 0 0 1 .5.5c0 2.6 3.158 4.5 4.5 4.5s4.5-1.9 4.5-4.5a.5.5 0 0 1 .5-.5c.494 0 .625-.653.625-1 0-.344-.13-1-.625-1a.5.5 0 0 1-.49-.4l-.42-2.104c-2.629-.07-3.55-.82-4.09-1.601-.539.782-1.46 1.53-4.089 1.6m4.09 10.506c-1.565 0-5.177-1.957-5.48-5.078-.686-.234-1.146-.971-1.146-1.922 0-.977.486-1.728 1.203-1.94l.432-2.158A.5.5 0 0 1 7.5 6c2.984 0 3.486-.84 3.82-1.396.097-.166.191-.322.326-.457a.514.514 0 0 1 .707 0c.136.135.23.29.328.457.333.556.835 1.396 3.82 1.396a.5.5 0 0 1 .49.402l.431 2.158c.717.212 1.203.963 1.203 1.94 0 .95-.46 1.688-1.146 1.922-.303 3.12-3.916 5.078-5.479 5.078"/>
        <path d="M6.01 10.25a.5.5 0 0 1-.494-.432l-.511-3.75c-.01-.098-.181-1.994 1.242-3.567 1.2-1.327 3.137-2 5.753-2s4.552.672 5.754 2c1.423 1.573 1.252 3.469 1.244 3.549l-.514 3.768a.5.5 0 0 1-.991-.134l.512-3.752s.124-1.537-1.003-2.772C15.996 2.058 14.314 1.5 12 1.5c-2.322 0-4.008.563-5.012 1.671-1.13 1.249-.992 2.765-.99 2.78l.509 3.733a.5.5 0 0 1-.496.567M24 24.5H0v-3a4.52 4.52 0 0 1 2.92-4.214l6.404-1.755a.506.506 0 0 1 .615.351.501.501 0 0 1-.351.614l-6.36 1.741C1.913 18.732 1 20.049 1 21.5v2h22v-2a3.516 3.516 0 0 0-2.271-3.277l-6.299-1.741a.5.5 0 0 1 .266-.964l6.342 1.754C22.827 17.941 24 19.634 24 21.5v3z"/>
        <path d="M11 10.502a.5.5 0 0 1-.5-.492c-.093-.01-.25-.008-.364-.008h-.272a3.892 3.892 0 0 0-.364.007c-.031.252-.243.466-.498.466-.276 0-.502-.197-.502-.473 0-.299.089-.539.266-.713.295-.294.71-.296 1.106-.287h.256c.397-.006.81-.008 1.106.287.177.175.266.415.266.713a.5.5 0 0 1-.5.5M15 10.502a.5.5 0 0 1-.5-.492c-.093-.01-.251-.008-.364-.008h-.272a3.875 3.875 0 0 0-.364.007c-.031.252-.243.466-.498.466-.276 0-.502-.197-.502-.473 0-.299.089-.539.266-.713.296-.294.709-.296 1.106-.287h.256c.396-.006.81-.008 1.106.287.177.175.266.415.266.713a.5.5 0 0 1-.5.5M9.934 23.5h4.132L12 20.401 9.934 23.5zm5.066 1H9a.5.5 0 0 1-.416-.777l3-4.5c.185-.279.646-.279.832 0l3 4.5A.5.5 0 0 1 15 24.5z"/>
        <path d="M12 20c-1.103 0-2-.897-2-2v-1.5h1V18c0 .551.449 1 1 1 .551 0 1-.449 1-1v-1.5h1V18c0 1.103-.897 2-2 2M21 21.5h-3.5v-1H21z"/>
    </g>
</svg>
