<?xml version="1.0" encoding="UTF-8"?>
<svg width="164px" height="164px" viewBox="0 0 164 164" version="1.1" xmlns="http://www.w3.org/2000/svg" xmlns:xlink="http://www.w3.org/1999/xlink">
    <!-- Generator: Sketch 47.1 (45422) - http://www.bohemiancoding.com/sketch -->
    <title>Artboard</title>
    <desc>Created with Sketch.</desc>
    <defs></defs>
    <g id="Page-1" stroke="none" stroke-width="1" fill="none" fill-rule="evenodd">
        <g id="Artboard">
            <g id="Page-1">
                <g id="Group-4" transform="translate(16.000000, 34.004000)">
                    <path d="M0.5586,47.8164 L0.5306,47.8164 C0.3046,47.8004 0.1306,47.6064 0.1426,47.3744 C0.2406,45.7744 1.1126,31.6724 1.8106,30.2104 C4.0466,25.5404 5.6286,21.6444 6.5106,18.6304 C6.5486,18.4924 6.5786,18.3964 6.5986,18.3424 C6.6106,18.2984 6.6206,18.1504 6.6286,18.0324 C6.6846,17.1924 6.8026,15.4444 9.0346,13.8844 C9.3866,13.6404 9.6766,13.6864 9.8566,13.7644 C10.5186,14.0504 10.7086,15.1904 10.9686,17.0264 C11.0966,17.9244 11.3066,19.4204 11.5806,19.6084 C11.9586,19.5964 12.1166,19.1884 12.4986,17.9264 C12.7186,17.1964 12.9906,16.2904 13.4566,15.2324 C13.8186,14.3004 14.1666,13.2744 14.5006,12.2844 C15.8506,8.2844 17.2446,4.1504 20.6266,3.5164 C22.8966,3.0864 24.3306,2.7684 25.3766,2.5304 C27.6846,2.0184 27.8206,1.9844 29.9686,2.4804 C33.5986,3.6084 36.2526,2.0484 38.0106,1.0164 C38.9466,0.4644 39.6246,0.0684 40.1926,0.2304 C42.5366,0.9004 44.1666,4.3644 45.4746,7.1524 C45.6206,7.4644 45.7646,7.7684 45.8986,8.0484 C46.8286,9.9764 47.0446,13.3524 47.2366,16.3304 C47.3906,18.7044 47.5806,21.6604 48.1886,22.0484 C48.2146,22.0644 48.2566,22.0924 48.3726,22.0464 C49.4286,21.6384 49.6026,20.9284 49.8746,19.8564 C50.1186,18.8824 50.4246,17.6704 51.5406,16.4404 C51.7846,16.1704 52.2466,16.0384 52.9746,15.8524 C53.4886,15.7164 54.1286,15.5504 54.3946,15.3364 C54.5326,15.1804 54.8046,14.2384 55.0226,13.4804 C55.6666,11.2564 56.4626,8.4864 57.9966,8.1824 C58.7226,8.0364 59.4266,7.9964 60.1026,7.9544 C61.3086,7.8864 62.5606,7.8144 64.1526,7.1644 C64.5806,6.9904 64.9986,6.9964 65.3846,7.1884 C66.5646,7.7604 67.1706,9.8784 67.7606,11.9304 C68.0446,12.9344 68.4786,14.4504 68.7786,14.6024 C71.1006,15.3604 74.2646,16.3944 76.5166,20.9124 C81.5926,30.2744 83.2326,34.3164 83.8266,38.9184 C83.8566,39.1444 83.6966,39.3564 83.4706,39.3824 C83.2446,39.4064 83.0326,39.2504 83.0026,39.0244 C82.4166,34.4884 80.8646,30.6764 75.7826,21.2924 C73.6746,17.0764 70.7006,16.1044 68.5326,15.3944 C67.8506,15.1724 67.5066,14.0764 66.9586,12.1564 C66.4746,10.4564 65.8686,8.3444 65.0246,7.9324 C64.8506,7.8484 64.6746,7.8484 64.4666,7.9344 C62.7466,8.6364 61.4286,8.7124 60.1526,8.7844 C59.4726,8.8244 58.8326,8.8584 58.1626,8.9964 C57.1226,9.2004 56.3086,12.0244 55.8226,13.7084 C55.4326,15.0684 55.2286,15.7324 54.9146,15.9804 C54.5106,16.3064 53.8366,16.4824 53.1846,16.6524 C52.8186,16.7464 52.2666,16.8904 52.1546,16.9984 C51.1806,18.0724 50.9146,19.1264 50.6826,20.0564 C50.3966,21.1884 50.1266,22.2564 48.6766,22.8204 C48.2566,22.9804 47.9366,22.8704 47.7466,22.7484 C46.8266,22.1624 46.6466,20.0544 46.4106,16.3804 C46.2226,13.4784 46.0126,10.1904 45.1546,8.4084 C45.0166,8.1224 44.8746,7.8204 44.7266,7.5044 C43.5526,5.0104 41.9486,1.5944 39.9666,1.0284 C39.7326,0.9564 39.0446,1.3704 38.4326,1.7304 C36.6626,2.7724 33.6986,4.5124 29.7546,3.2784 C27.8186,2.8364 27.8186,2.8364 25.5586,3.3424 C24.5066,3.5764 23.0686,3.9004 20.7806,4.3284 C17.8766,4.8764 16.5606,8.7764 15.2866,12.5484 C14.9486,13.5484 14.6006,14.5844 14.2246,15.5484 C13.7706,16.5804 13.5086,17.4584 13.2926,18.1664 C12.8986,19.4784 12.6126,20.4264 11.5326,20.4264 C10.6106,20.4264 10.4086,18.9764 10.1486,17.1444 C10.0186,16.2324 9.8026,14.7064 9.5206,14.5224 C7.6046,15.8964 7.5086,17.3224 7.4566,18.0864 C7.4426,18.2984 7.4326,18.4684 7.3846,18.6084 C7.3666,18.6584 7.3426,18.7424 7.3066,18.8604 C6.4106,21.9184 4.8146,25.8584 2.5606,30.5664 C2.0846,31.5624 1.3506,41.1944 0.9706,47.4264 C0.9586,47.6444 0.7746,47.8164 0.5586,47.8164" id="Fill-1" fill="#000000"></path>
                    <path d="M0.5586,47.8164 L0.5306,47.8164 C0.3046,47.8004 0.1306,47.6064 0.1426,47.3744 C0.2406,45.7744 1.1126,31.6724 1.8106,30.2104 C4.0466,25.5404 5.6286,21.6444 6.5106,18.6304 C6.5486,18.4924 6.5786,18.3964 6.5986,18.3424 C6.6106,18.2984 6.6206,18.1504 6.6286,18.0324 C6.6846,17.1924 6.8026,15.4444 9.0346,13.8844 C9.3866,13.6404 9.6766,13.6864 9.8566,13.7644 C10.5186,14.0504 10.7086,15.1904 10.9686,17.0264 C11.0966,17.9244 11.3066,19.4204 11.5806,19.6084 C11.9586,19.5964 12.1166,19.1884 12.4986,17.9264 C12.7186,17.1964 12.9906,16.2904 13.4566,15.2324 C13.8186,14.3004 14.1666,13.2744 14.5006,12.2844 C15.8506,8.2844 17.2446,4.1504 20.6266,3.5164 C22.8966,3.0864 24.3306,2.7684 25.3766,2.5304 C27.6846,2.0184 27.8206,1.9844 29.9686,2.4804 C33.5986,3.6084 36.2526,2.0484 38.0106,1.0164 C38.9466,0.4644 39.6246,0.0684 40.1926,0.2304 C42.5366,0.9004 44.1666,4.3644 45.4746,7.1524 C45.6206,7.4644 45.7646,7.7684 45.8986,8.0484 C46.8286,9.9764 47.0446,13.3524 47.2366,16.3304 C47.3906,18.7044 47.5806,21.6604 48.1886,22.0484 C48.2146,22.0644 48.2566,22.0924 48.3726,22.0464 C49.4286,21.6384 49.6026,20.9284 49.8746,19.8564 C50.1186,18.8824 50.4246,17.6704 51.5406,16.4404 C51.7846,16.1704 52.2466,16.0384 52.9746,15.8524 C53.4886,15.7164 54.1286,15.5504 54.3946,15.3364 C54.5326,15.1804 54.8046,14.2384 55.0226,13.4804 C55.6666,11.2564 56.4626,8.4864 57.9966,8.1824 C58.7226,8.0364 59.4266,7.9964 60.1026,7.9544 C61.3086,7.8864 62.5606,7.8144 64.1526,7.1644 C64.5806,6.9904 64.9986,6.9964 65.3846,7.1884 C66.5646,7.7604 67.1706,9.8784 67.7606,11.9304 C68.0446,12.9344 68.4786,14.4504 68.7786,14.6024 C71.1006,15.3604 74.2646,16.3944 76.5166,20.9124 C81.5926,30.2744 83.2326,34.3164 83.8266,38.9184 C83.8566,39.1444 83.6966,39.3564 83.4706,39.3824 C83.2446,39.4064 83.0326,39.2504 83.0026,39.0244 C82.4166,34.4884 80.8646,30.6764 75.7826,21.2924 C73.6746,17.0764 70.7006,16.1044 68.5326,15.3944 C67.8506,15.1724 67.5066,14.0764 66.9586,12.1564 C66.4746,10.4564 65.8686,8.3444 65.0246,7.9324 C64.8506,7.8484 64.6746,7.8484 64.4666,7.9344 C62.7466,8.6364 61.4286,8.7124 60.1526,8.7844 C59.4726,8.8244 58.8326,8.8584 58.1626,8.9964 C57.1226,9.2004 56.3086,12.0244 55.8226,13.7084 C55.4326,15.0684 55.2286,15.7324 54.9146,15.9804 C54.5106,16.3064 53.8366,16.4824 53.1846,16.6524 C52.8186,16.7464 52.2666,16.8904 52.1546,16.9984 C51.1806,18.0724 50.9146,19.1264 50.6826,20.0564 C50.3966,21.1884 50.1266,22.2564 48.6766,22.8204 C48.2566,22.9804 47.9366,22.8704 47.7466,22.7484 C46.8266,22.1624 46.6466,20.0544 46.4106,16.3804 C46.2226,13.4784 46.0126,10.1904 45.1546,8.4084 C45.0166,8.1224 44.8746,7.8204 44.7266,7.5044 C43.5526,5.0104 41.9486,1.5944 39.9666,1.0284 C39.7326,0.9564 39.0446,1.3704 38.4326,1.7304 C36.6626,2.7724 33.6986,4.5124 29.7546,3.2784 C27.8186,2.8364 27.8186,2.8364 25.5586,3.3424 C24.5066,3.5764 23.0686,3.9004 20.7806,4.3284 C17.8766,4.8764 16.5606,8.7764 15.2866,12.5484 C14.9486,13.5484 14.6006,14.5844 14.2246,15.5484 C13.7706,16.5804 13.5086,17.4584 13.2926,18.1664 C12.8986,19.4784 12.6126,20.4264 11.5326,20.4264 C10.6106,20.4264 10.4086,18.9764 10.1486,17.1444 C10.0186,16.2324 9.8026,14.7064 9.5206,14.5224 C7.6046,15.8964 7.5086,17.3224 7.4566,18.0864 C7.4426,18.2984 7.4326,18.4684 7.3846,18.6084 C7.3666,18.6584 7.3426,18.7424 7.3066,18.8604 C6.4106,21.9184 4.8146,25.8584 2.5606,30.5664 C2.0846,31.5624 1.3506,41.1944 0.9706,47.4264 C0.9586,47.6444 0.7746,47.8164 0.5586,47.8164" id="Stroke-3" stroke="#000000" stroke-width="0.5"></path>
                </g>
                <g id="Group-8" transform="translate(2.000000, 72.004000)">
                    <path d="M22.461,12.0468 C15.169,12.0468 7.859,11.5708 0.555,10.4108 C0.327,10.3748 0.173,10.1608 0.209,9.9328 C0.247,9.7068 0.457,9.5548 0.683,9.5888 C25.009,13.4528 49.455,9.6788 73.095,6.0348 C103.787,1.3008 132.771,-3.1672 159.561,8.6908 C159.767,8.7848 159.865,9.0268 159.771,9.2388 C159.677,9.4488 159.431,9.5428 159.225,9.4488 C132.659,-2.3132 103.787,2.1408 73.223,6.8548 C56.599,9.4188 39.581,12.0468 22.461,12.0468" id="Fill-5" fill="#000000"></path>
                    <path d="M22.461,12.0468 C15.169,12.0468 7.859,11.5708 0.555,10.4108 C0.327,10.3748 0.173,10.1608 0.209,9.9328 C0.247,9.7068 0.457,9.5548 0.683,9.5888 C25.009,13.4528 49.455,9.6788 73.095,6.0348 C103.787,1.3008 132.771,-3.1672 159.561,8.6908 C159.767,8.7848 159.865,9.0268 159.771,9.2388 C159.677,9.4488 159.431,9.5428 159.225,9.4488 C132.659,-2.3132 103.787,2.1408 73.223,6.8548 C56.599,9.4188 39.581,12.0468 22.461,12.0468" id="Stroke-7" stroke="#000000" stroke-width="0.5"></path>
                </g>
                <g id="Group-12" transform="translate(120.000000, 82.004000)">
                    <path d="M1.2208,6.6132 C1.2208,6.6132 7.6188,3.8832 8.9208,7.4912 C9.2828,8.5032 8.5808,9.9332 8.7988,11.2352 C9.0128,12.5272 8.9388,18.7352 15.9388,25.1592 C15.9388,25.1592 14.1388,33.6012 16.0888,39.2352 C16.0888,39.2352 18.3228,29.4912 18.1068,26.6012 C18.1068,26.6012 18.4588,28.3552 18.5408,29.5632 C18.6348,30.9292 18.8308,25.7352 18.8308,25.7352 C18.8308,25.7352 19.4308,27.5972 19.6228,27.9772 C19.8228,28.3632 19.3568,18.6992 17.8928,15.2032 C16.4868,11.8432 13.8148,10.0772 13.2368,9.9292 C12.6588,9.7892 11.9008,9.8592 11.9008,9.8592 C11.9008,9.8592 11.9748,9.2112 12.7668,8.6332 C13.5608,8.0552 14.1788,5.5672 11.8308,4.4092 C11.8308,4.4092 12.6628,3.9412 12.6968,3.5812 C12.7328,3.2232 12.0448,3.2932 11.7948,3.1492 C11.5408,3.0072 9.5448,2.2112 8.1508,1.9952 C6.0608,1.6712 5.4828,3.2932 5.4828,3.2932 C5.4828,3.2932 1.2568,4.3392 1.2208,6.6132" id="Fill-9" fill="#000000"></path>
                    <path d="M1.2208,6.6132 C1.2208,6.6132 7.6188,3.8832 8.9208,7.4912 C9.2828,8.5032 8.5808,9.9332 8.7988,11.2352 C9.0128,12.5272 8.9388,18.7352 15.9388,25.1592 C15.9388,25.1592 14.1388,33.6012 16.0888,39.2352 C16.0888,39.2352 18.3228,29.4912 18.1068,26.6012 C18.1068,26.6012 18.4588,28.3552 18.5408,29.5632 C18.6348,30.9292 18.8308,25.7352 18.8308,25.7352 C18.8308,25.7352 19.4308,27.5972 19.6228,27.9772 C19.8228,28.3632 19.3568,18.6992 17.8928,15.2032 C16.4868,11.8432 13.8148,10.0772 13.2368,9.9292 C12.6588,9.7892 11.9008,9.8592 11.9008,9.8592 C11.9008,9.8592 11.9748,9.2112 12.7668,8.6332 C13.5608,8.0552 14.1788,5.5672 11.8308,4.4092 C11.8308,4.4092 12.6628,3.9412 12.6968,3.5812 C12.7328,3.2232 12.0448,3.2932 11.7948,3.1492 C11.5408,3.0072 9.5448,2.2112 8.1508,1.9952 C6.0608,1.6712 5.4828,3.2932 5.4828,3.2932 C5.4828,3.2932 1.2568,4.3392 1.2208,6.6132" id="Stroke-11" stroke="#000000" stroke-width="0.5"></path>
                </g>
                <path d="M132.0292,103.2696 C132.0292,103.2696 131.4552,101.8436 130.4432,101.8436 C129.4352,101.8436 128.9232,103.1216 128.9232,103.1216 C128.9232,103.1216 129.7252,102.5976 130.4272,102.5976 C131.1312,102.5976 132.0292,103.2696 132.0292,103.2696" id="Fill-13" fill="#000000"></path>
                <g id="Group-18" transform="translate(114.000000, 54.004000)">
                    <path d="M37.9864,22.0468 C37.9544,22.0468 37.9204,22.0428 37.8804,22.0348 C37.6584,21.9768 37.5264,21.7468 37.5884,21.5268 C38.6344,17.5968 36.0724,12.7028 35.2644,12.1008 C33.7164,10.9408 29.6544,9.5228 28.9664,9.5108 C28.8724,9.5748 28.7444,10.0348 28.6664,10.3128 C28.4784,10.9688 28.2524,11.7848 27.5724,12.0888 C27.3104,12.2108 27.0484,12.1988 26.8304,12.0588 C26.2004,11.6608 26.1384,10.3008 26.1124,8.2708 C26.1084,7.9428 26.1044,7.6308 26.0964,7.3528 C26.0484,6.0208 20.7284,2.6068 19.7604,2.1708 C18.6344,1.6668 17.9124,1.9728 17.2764,2.2448 C16.9584,2.3788 16.6544,2.4848 16.3544,2.5008 C16.0884,2.4968 15.7944,2.3788 15.4584,2.2448 C14.4744,1.8528 13.8504,1.6788 13.4364,2.5608 C12.3644,4.8308 6.3884,8.2488 4.8024,8.7728 C3.9864,9.0468 3.6544,11.7108 3.5104,12.8508 C3.3764,13.9448 3.3384,14.2848 2.8764,14.3048 C2.7644,14.3048 2.6424,14.2688 2.4984,14.2348 C2.2204,14.1648 1.8424,14.0708 1.6424,14.2468 C1.3684,14.4888 1.0804,15.3048 1.2444,17.8328 C1.2604,18.0628 1.0844,18.2608 0.8584,18.2728 C0.6304,18.2848 0.4324,18.1128 0.4164,17.8868 C0.2564,15.4608 0.4584,14.1828 1.0964,13.6248 C1.5764,13.1948 2.2084,13.3128 2.6004,13.4068 C2.6304,13.2228 2.6584,12.9768 2.6904,12.7508 C2.9584,10.5628 3.3304,8.3928 4.5404,7.9888 C6.0684,7.4788 11.7604,4.1668 12.6824,2.2068 C13.4584,0.5548 14.9584,1.1528 15.7644,1.4748 C15.9944,1.5648 16.2524,1.6688 16.3644,1.6708 C16.4704,1.6528 16.7124,1.5808 16.9464,1.4828 C17.6224,1.1928 18.6424,0.7568 20.0964,1.4148 C20.1624,1.4428 26.8464,5.1488 26.9204,7.3268 C26.9324,7.6068 26.9364,7.9268 26.9404,8.2608 C26.9504,9.1828 26.9744,11.1008 27.2764,11.3628 C27.5564,11.1868 27.7164,10.6008 27.8624,10.0868 C28.0524,9.4228 28.2404,8.6988 28.9784,8.6788 C29.8764,8.6948 34.1184,10.2068 35.7644,11.4368 C36.8804,12.2688 39.4904,17.5928 38.3884,21.7388 C38.3384,21.9248 38.1744,22.0468 37.9864,22.0468" id="Fill-15" fill="#000000"></path>
                    <path d="M37.9864,22.0468 C37.9544,22.0468 37.9204,22.0428 37.8804,22.0348 C37.6584,21.9768 37.5264,21.7468 37.5884,21.5268 C38.6344,17.5968 36.0724,12.7028 35.2644,12.1008 C33.7164,10.9408 29.6544,9.5228 28.9664,9.5108 C28.8724,9.5748 28.7444,10.0348 28.6664,10.3128 C28.4784,10.9688 28.2524,11.7848 27.5724,12.0888 C27.3104,12.2108 27.0484,12.1988 26.8304,12.0588 C26.2004,11.6608 26.1384,10.3008 26.1124,8.2708 C26.1084,7.9428 26.1044,7.6308 26.0964,7.3528 C26.0484,6.0208 20.7284,2.6068 19.7604,2.1708 C18.6344,1.6668 17.9124,1.9728 17.2764,2.2448 C16.9584,2.3788 16.6544,2.4848 16.3544,2.5008 C16.0884,2.4968 15.7944,2.3788 15.4584,2.2448 C14.4744,1.8528 13.8504,1.6788 13.4364,2.5608 C12.3644,4.8308 6.3884,8.2488 4.8024,8.7728 C3.9864,9.0468 3.6544,11.7108 3.5104,12.8508 C3.3764,13.9448 3.3384,14.2848 2.8764,14.3048 C2.7644,14.3048 2.6424,14.2688 2.4984,14.2348 C2.2204,14.1648 1.8424,14.0708 1.6424,14.2468 C1.3684,14.4888 1.0804,15.3048 1.2444,17.8328 C1.2604,18.0628 1.0844,18.2608 0.8584,18.2728 C0.6304,18.2848 0.4324,18.1128 0.4164,17.8868 C0.2564,15.4608 0.4584,14.1828 1.0964,13.6248 C1.5764,13.1948 2.2084,13.3128 2.6004,13.4068 C2.6304,13.2228 2.6584,12.9768 2.6904,12.7508 C2.9584,10.5628 3.3304,8.3928 4.5404,7.9888 C6.0684,7.4788 11.7604,4.1668 12.6824,2.2068 C13.4584,0.5548 14.9584,1.1528 15.7644,1.4748 C15.9944,1.5648 16.2524,1.6688 16.3644,1.6708 C16.4704,1.6528 16.7124,1.5808 16.9464,1.4828 C17.6224,1.1928 18.6424,0.7568 20.0964,1.4148 C20.1624,1.4428 26.8464,5.1488 26.9204,7.3268 C26.9324,7.6068 26.9364,7.9268 26.9404,8.2608 C26.9504,9.1828 26.9744,11.1008 27.2764,11.3628 C27.5564,11.1868 27.7164,10.6008 27.8624,10.0868 C28.0524,9.4228 28.2404,8.6988 28.9784,8.6788 C29.8764,8.6948 34.1184,10.2068 35.7644,11.4368 C36.8804,12.2688 39.4904,17.5928 38.3884,21.7388 C38.3384,21.9248 38.1744,22.0468 37.9864,22.0468" id="Stroke-17" stroke="#000000" stroke-width="0.5"></path>
                </g>
                <path d="M115.4902,129.8634 L116.6122,129.8634 L116.6122,110.1494 C116.6122,108.9494 116.5322,106.9774 116.5322,106.9374 C116.6122,107.0934 117.3462,108.7154 117.9282,109.7234 L122.8342,118.7314 L122.9942,118.7314 L127.9002,109.6834 C128.4442,108.6414 129.2942,107.0154 129.3302,106.9374 C129.3302,106.9774 129.2562,108.9094 129.2562,110.1094 L129.2562,129.8634 L130.3722,129.8634 L130.3722,103.3094 L130.1082,103.3094 L122.9162,116.6794 L115.7242,103.3094 L115.4902,103.3094 L115.4902,129.8634 Z M103.8922,109.6454 C104.2002,108.4494 104.5522,106.6294 104.5882,106.4374 C104.6262,106.7074 104.9742,108.4854 105.3222,109.6454 L109.2282,123.9094 L99.9502,123.9094 L103.8922,109.6454 Z M97.1262,129.8634 L98.2862,129.8634 L99.6422,124.9914 L109.5362,124.9914 L110.8922,129.8634 L112.0882,129.8634 L104.7042,103.3094 L104.4742,103.3094 L97.1262,129.8634 Z M89.3582,130.1714 C92.9902,130.1714 95.2322,127.8514 95.2322,124.1054 L95.2322,123.6414 C95.2322,121.1674 93.9582,118.9614 91.7162,116.8754 L88.8182,114.1294 C86.9582,112.3914 85.6082,110.8834 85.6082,108.5634 L85.6082,108.3674 C85.6082,105.9734 87.0402,104.3474 89.3962,104.3474 C91.1342,104.3474 92.0642,104.8514 93.1862,105.8954 L93.9582,105.0034 C92.6822,103.8434 91.5602,103.2654 89.3962,103.2654 C86.6502,103.2654 84.4502,105.1594 84.4502,108.3274 L84.4502,108.5974 C84.4502,111.1534 85.8762,113.0034 87.9662,114.9414 L90.9822,117.7614 C92.8762,119.4994 94.0362,121.5854 94.0362,123.6374 L94.0362,124.0634 C94.0362,127.0394 92.3722,129.0474 89.3582,129.0474 C86.8062,129.0474 85.4162,127.8514 84.2562,126.6134 L83.3662,127.3874 C84.4082,128.6674 86.1902,130.1714 89.3582,130.1714 L89.3582,130.1714 Z M64.8102,129.8634 L65.9302,129.8634 L65.9302,110.1494 C65.9302,108.9494 65.8542,106.9774 65.8542,106.9374 C65.9302,107.0934 66.6642,108.7154 67.2462,109.7234 L72.1562,118.7314 L72.3082,118.7314 L77.2182,109.6834 C77.7602,108.6414 78.6122,107.0154 78.6502,106.9374 C78.6502,106.9774 78.5722,108.9094 78.5722,110.1094 L78.5722,129.8634 L79.6942,129.8634 L79.6942,103.3094 L79.4242,103.3094 L72.2322,116.6794 L65.0402,103.3094 L64.8102,103.3094 L64.8102,129.8634 Z M53.2122,109.6454 C53.5222,108.4494 53.8682,106.6294 53.9062,106.4374 C53.9462,106.7074 54.2922,108.4854 54.6422,109.6454 L58.5462,123.9094 L49.2722,123.9094 L53.2122,109.6454 Z M46.4482,129.8634 L47.6062,129.8634 L48.9602,124.9914 L58.8582,124.9914 L60.2102,129.8634 L61.4082,129.8634 L54.0262,103.3094 L53.7922,103.3094 L46.4482,129.8634 Z M38.6782,130.1714 C42.3082,130.1714 44.5522,127.8514 44.5522,124.1054 L44.5522,123.6414 C44.5522,121.1674 43.2762,118.9614 41.0322,116.8754 L38.1342,114.1294 C36.2802,112.3914 34.9262,110.8834 34.9262,108.5634 L34.9262,108.3674 C34.9262,105.9734 36.3562,104.3474 38.7142,104.3474 C40.4522,104.3474 41.3822,104.8514 42.5042,105.8954 L43.2762,105.0034 C42.0002,103.8434 40.8802,103.2654 38.7142,103.2654 C35.9682,103.2654 33.7662,105.1594 33.7662,108.3274 L33.7662,108.5974 C33.7662,111.1534 35.1982,113.0034 37.2822,114.9414 L40.2982,117.7614 C42.1942,119.4994 43.3542,121.5854 43.3542,123.6374 L43.3542,124.0634 C43.3542,127.0394 41.6922,129.0474 38.6762,129.0474 C36.1242,129.0474 34.7302,127.8514 33.5702,126.6134 L32.6842,127.3874 C33.7282,128.6674 35.5062,130.1714 38.6782,130.1714 L38.6782,130.1714 Z" id="Fill-19" fill="#000000"></path>
                <path d="M115.4902,129.8634 L116.6122,129.8634 L116.6122,110.1494 C116.6122,108.9494 116.5322,106.9774 116.5322,106.9374 C116.6122,107.0934 117.3462,108.7154 117.9282,109.7234 L122.8342,118.7314 L122.9942,118.7314 L127.9002,109.6834 C128.4442,108.6414 129.2942,107.0154 129.3302,106.9374 C129.3302,106.9774 129.2562,108.9094 129.2562,110.1094 L129.2562,129.8634 L130.3722,129.8634 L130.3722,103.3094 L130.1082,103.3094 L122.9162,116.6794 L115.7242,103.3094 L115.4902,103.3094 L115.4902,129.8634 Z M103.8922,109.6454 C104.2002,108.4494 104.5522,106.6294 104.5882,106.4374 C104.6262,106.7074 104.9742,108.4854 105.3222,109.6454 L109.2282,123.9094 L99.9502,123.9094 L103.8922,109.6454 Z M97.1262,129.8634 L98.2862,129.8634 L99.6422,124.9914 L109.5362,124.9914 L110.8922,129.8634 L112.0882,129.8634 L104.7042,103.3094 L104.4742,103.3094 L97.1262,129.8634 Z M89.3582,130.1714 C92.9902,130.1714 95.2322,127.8514 95.2322,124.1054 L95.2322,123.6414 C95.2322,121.1674 93.9582,118.9614 91.7162,116.8754 L88.8182,114.1294 C86.9582,112.3914 85.6082,110.8834 85.6082,108.5634 L85.6082,108.3674 C85.6082,105.9734 87.0402,104.3474 89.3962,104.3474 C91.1342,104.3474 92.0642,104.8514 93.1862,105.8954 L93.9582,105.0034 C92.6822,103.8434 91.5602,103.2654 89.3962,103.2654 C86.6502,103.2654 84.4502,105.1594 84.4502,108.3274 L84.4502,108.5974 C84.4502,111.1534 85.8762,113.0034 87.9662,114.9414 L90.9822,117.7614 C92.8762,119.4994 94.0362,121.5854 94.0362,123.6374 L94.0362,124.0634 C94.0362,127.0394 92.3722,129.0474 89.3582,129.0474 C86.8062,129.0474 85.4162,127.8514 84.2562,126.6134 L83.3662,127.3874 C84.4082,128.6674 86.1902,130.1714 89.3582,130.1714 L89.3582,130.1714 Z M64.8102,129.8634 L65.9302,129.8634 L65.9302,110.1494 C65.9302,108.9494 65.8542,106.9774 65.8542,106.9374 C65.9302,107.0934 66.6642,108.7154 67.2462,109.7234 L72.1562,118.7314 L72.3082,118.7314 L77.2182,109.6834 C77.7602,108.6414 78.6122,107.0154 78.6502,106.9374 C78.6502,106.9774 78.5722,108.9094 78.5722,110.1094 L78.5722,129.8634 L79.6942,129.8634 L79.6942,103.3094 L79.4242,103.3094 L72.2322,116.6794 L65.0402,103.3094 L64.8102,103.3094 L64.8102,129.8634 Z M53.2122,109.6454 C53.5222,108.4494 53.8682,106.6294 53.9062,106.4374 C53.9462,106.7074 54.2922,108.4854 54.6422,109.6454 L58.5462,123.9094 L49.2722,123.9094 L53.2122,109.6454 Z M46.4482,129.8634 L47.6062,129.8634 L48.9602,124.9914 L58.8582,124.9914 L60.2102,129.8634 L61.4082,129.8634 L54.0262,103.3094 L53.7922,103.3094 L46.4482,129.8634 Z M38.6782,130.1714 C42.3082,130.1714 44.5522,127.8514 44.5522,124.1054 L44.5522,123.6414 C44.5522,121.1674 43.2762,118.9614 41.0322,116.8754 L38.1342,114.1294 C36.2802,112.3914 34.9262,110.8834 34.9262,108.5634 L34.9262,108.3674 C34.9262,105.9734 36.3562,104.3474 38.7142,104.3474 C40.4522,104.3474 41.3822,104.8514 42.5042,105.8954 L43.2762,105.0034 C42.0002,103.8434 40.8802,103.2654 38.7142,103.2654 C35.9682,103.2654 33.7662,105.1594 33.7662,108.3274 L33.7662,108.5974 C33.7662,111.1534 35.1982,113.0034 37.2822,114.9414 L40.2982,117.7614 C42.1942,119.4994 43.3542,121.5854 43.3542,123.6374 L43.3542,124.0634 C43.3542,127.0394 41.6922,129.0474 38.6762,129.0474 C36.1242,129.0474 34.7302,127.8514 33.5702,126.6134 L32.6842,127.3874 C33.7282,128.6674 35.5062,130.1714 38.6782,130.1714 L38.6782,130.1714 Z" id="Stroke-21" stroke="#000000" stroke-width="0.5"></path>
                <path d="M82.002,0.6466 C126.932,0.6466 163.356,37.0706 163.356,82.0006 C163.356,126.9326 126.932,163.3546 82.002,163.3546 C37.07,163.3546 0.646,126.9326 0.646,82.0006 C0.646,37.0706 37.07,0.6466 82.002,0.6466 Z" id="Stroke-23" stroke="#000000" stroke-width="1.2"></path>
            </g>
        </g>
    </g>
</svg>