<svg xmlns="http://www.w3.org/2000/svg" xmlns:xlink="http://www.w3.org/1999/xlink" width="111" height="94" viewBox="0 0 111 94">
    <defs>
        <path id="a" d="M48.361.5H.487v61.125h47.874V.5z"/>
    </defs>
    <g fill="none" fill-rule="evenodd">
        <g transform="translate(32.471 .06)">
            <mask id="b" fill="#fff">
                <use xlink:href="#a"/>
            </mask>
            <path fill="#FEFEFE" d="M44.638 10.335s-4.543 2.11-9.696 6.416C32.89 11.439 29.415 5.962 23.968.5c0 0-5.985 6.396-9.87 16.127-2.935-2.335-6.49-4.466-10.78-6.292 0 0-14.1 36.466 20.637 51.276a.165.165 0 0 1 .013.014l.001-.001.01-.003.008.004.003-.01c.844-.373 35.578-16.014 20.648-51.28M24.634 59.81c1.404-4.299 4.327-15.626.741-26.99 2.252-3.738 5.143-6.727 7.847-8.994C39.8 41.257 27.62 56.447 24.634 59.81M15.686 23.71c3.303 2.646 5.647 5.607 7.27 8.672-3.044 7.25-3.888 16.341.266 27.326C10.708 46.68 11.913 33.287 15.686 23.71m8.486 11.31c4.171 10.508.939 21.498-.192 24.715-4.07-10.163-2.931-18.373.192-24.715m-11.71-13.592c-3.12 11.016-2.674 25.058 10.159 38.8C-4.898 47.824 6.599 18.415 6.599 18.415a41.266 41.266 0 0 1 5.862 3.014m11.534-11.29c3.3 3.284 5.725 6.574 7.46 9.814-2.649 2.678-5.232 5.92-7.236 9.748-1.482-3.456-3.652-6.853-6.718-9.994 3.023-5.889 6.494-9.569 6.494-9.569m1.132 50.198c3.854-4.503 15.765-20.298 11.275-38.935 2.87-1.988 5-2.969 5-2.969 11.404 26.654-11.734 39.656-16.275 41.904" mask="url(#b)"/>
        </g>
        <path fill="#FEFEFE" d="M6.576 93.5c3.925 0 6.346-2.512 6.346-6.573v-.502c0-2.68-1.378-5.066-3.799-7.326l-3.131-2.972c-2.005-1.884-3.466-3.517-3.466-6.029v-.209c0-2.596 1.545-4.354 4.092-4.354 1.879 0 2.88.545 4.092 1.676l.834-.964c-1.377-1.256-2.588-1.884-4.926-1.884-2.965 0-5.345 2.051-5.345 5.485v.292c0 2.763 1.545 4.772 3.8 6.866l3.256 3.056c2.047 1.884 3.3 4.145 3.3 6.363v.461c0 3.223-1.796 5.4-5.053 5.4-2.755 0-4.26-1.298-5.511-2.637l-.96.837C1.231 91.867 3.151 93.5 6.575 93.5zm8.393-.335h1.252l1.461-5.274h10.69l1.46 5.274h1.295l-7.975-28.76h-.25l-7.933 28.76zm7.306-21.895c.334-1.297.71-3.264.752-3.474.042.293.418 2.219.793 3.474l4.217 15.448h-10.02l4.258-15.448zm12.526 21.895h1.21v-21.35c0-1.298-.083-3.433-.083-3.475.084.168.877 1.926 1.504 3.014l5.303 9.755h.166l5.303-9.796c.584-1.13 1.503-2.889 1.545-2.973 0 .042-.083 2.136-.083 3.433v21.392h1.21v-28.76h-.292L42.818 78.89 35.05 64.405h-.25v28.76zm31.732.335c3.925 0 6.347-2.512 6.347-6.573v-.502c0-2.68-1.378-5.066-3.8-7.326l-3.13-2.972c-2.005-1.884-3.466-3.517-3.466-6.029v-.209c0-2.596 1.544-4.354 4.091-4.354 1.879 0 2.881.545 4.092 1.676l.835-.964c-1.378-1.256-2.59-1.884-4.927-1.884-2.965 0-5.344 2.051-5.344 5.485v.292c0 2.763 1.544 4.772 3.799 6.866l3.257 3.056c2.046 1.884 3.298 4.145 3.298 6.363v.461c0 3.223-1.795 5.4-5.052 5.4-2.756 0-4.258-1.298-5.512-2.637l-.96.837c1.127 1.381 3.049 3.014 6.472 3.014zm8.393-.335h1.253l1.461-5.274h10.688l1.462 5.274h1.294l-7.974-28.76h-.251l-7.933 28.76zm7.307-21.895c.333-1.297.71-3.264.75-3.474.043.293.419 2.219.794 3.474l4.217 15.448h-10.02l4.259-15.448zm12.526 21.895h1.21v-21.35c0-1.298-.084-3.433-.084-3.475.084.168.877 1.926 1.503 3.014l5.303 9.755h.167l5.303-9.796c.584-1.13 1.503-2.889 1.545-2.973 0 .042-.084 2.136-.084 3.433v21.392h1.21v-28.76h-.292l-7.765 14.485-7.766-14.485h-.25v28.76z"/>
    </g>
</svg>
