<svg xmlns="http://www.w3.org/2000/svg" width="40" height="40" viewBox="0 0 40 40">
    <defs>
        <filter id="a" width="146.7%" height="146.7%" x="-23.3%" y="-23.3%" filterUnits="objectBoundingBox">
            <feOffset in="SourceAlpha" result="shadowOffsetOuter1"/>
            <feGaussianBlur in="shadowOffsetOuter1" result="shadowBlurOuter1" stdDeviation="2"/>
            <feColorMatrix in="shadowBlurOuter1" result="shadowMatrixOuter1" values="0 0 0 0 0 0 0 0 0 0 0 0 0 0 0 0 0 0 0.2 0"/>
            <feMerge>
                <feMergeNode in="shadowMatrixOuter1"/>
                <feMergeNode in="SourceGraphic"/>
            </feMerge>
        </filter>
    </defs>
    <g fill="none" fill-rule="evenodd" filter="url(#a)" transform="translate(5 5)">
        <circle cx="15" cy="15" r="15" fill="#FFF" stroke="#00D4D0"/>
        <g transform="translate(9 6)">
            <path fill="#00D4D0" d="M6.332 3.14A.456.456 0 0 0 6 3a.455.455 0 0 0-.332.14L.113 9.048a.407.407 0 0 0 .035.596c.184.155.465.14.628-.034L6 4.055l5.224 5.554a.462.462 0 0 0 .628.034.407.407 0 0 0 .035-.596L6.332 3.141z"/>
            <circle cx="6" cy="10.5" r="1" fill="#00D4D0"/>
            <circle cx="6" cy="14.25" r="1" fill="#00D4D0"/>
            <circle cx="6" cy="18" r="1" fill="#00D4D0"/>
            <path stroke="#00D4D0" stroke-linecap="round" d="M0 .75h12"/>
        </g>
    </g>
</svg>
